<svg width="27" height="20" viewBox="0 0 27 20" fill="none" xmlns="http://www.w3.org/2000/svg">
<path d="M10.8919 2.92141C10.8457 2.94239 10.7702 3.02632 10.724 3.10605C10.5646 3.39979 10.5352 3.36202 13.0991 5.92594C14.3874 7.2142 15.4448 8.29264 15.4448 8.31782C15.4448 8.343 15.428 8.38076 15.4071 8.40174C15.3231 8.48986 15.1931 8.91369 15.1931 9.09413C15.1973 9.58509 15.5246 10.0886 15.9903 10.3236C16.1498 10.3992 16.2463 10.416 16.5988 10.4118C17.0562 10.4118 17.1947 10.3614 17.4926 10.0844C17.8745 9.72777 17.9794 9.30814 17.8535 8.61995L17.8283 8.45629L19.8048 6.47565C21.7518 4.52439 21.7812 4.49082 21.7812 4.32716C21.7812 4.19288 21.756 4.13413 21.6511 4.03342C21.5462 3.93271 21.4917 3.91173 21.3154 3.91593H21.1098L19.1585 5.86719C17.4255 7.60025 17.1989 7.81427 17.094 7.80168C17.031 7.79328 16.796 7.78069 16.5778 7.76811L16.1792 7.74712L13.7621 5.33007C11.3786 2.95079 11.3409 2.91722 11.1604 2.90043C11.0597 2.89204 10.938 2.90043 10.8919 2.92141Z" fill="white"/>
<path d="M1.60544 5.07809C1.40821 5.2879 1.40821 5.55646 1.60544 5.76628L1.69356 5.86279H3.3385H4.97924L5.10513 5.73271C5.27717 5.55227 5.27717 5.2921 5.10513 5.11166L4.97924 4.98158H3.3385H1.69356L1.60544 5.07809Z" fill="white"/>
<path d="M12.1925 0.109758C12.0792 0.172702 11.861 0.290197 11.7183 0.369926C10.9084 0.806338 10.1195 1.4148 9.41875 2.13236C8.95716 2.61074 8.26058 3.50034 8.11371 3.80667C8.08434 3.86542 8.02139 3.96613 7.97523 4.03747C7.9039 4.15077 7.46749 5.0152 7.32062 5.33831C7.25348 5.48518 7.14437 5.78731 7.09402 5.96775C7.07304 6.03489 7.03107 6.16917 6.99331 6.26149C6.95974 6.35381 6.93036 6.46291 6.92617 6.50907C6.92617 6.55103 6.90099 6.67272 6.86742 6.78183C6.57788 7.71759 6.51493 9.75279 6.74153 10.8984C6.97233 12.0733 7.37936 13.1476 7.97523 14.1715C8.63405 15.3044 9.6999 16.4584 10.8119 17.2515C11.0007 17.39 12.075 18.032 12.1086 18.032C12.117 18.032 12.2848 18.1076 12.482 18.1999C12.6793 18.2922 12.8639 18.3677 12.8933 18.3677C12.9226 18.3677 12.9856 18.3971 13.0275 18.4307C13.0737 18.4642 13.145 18.4936 13.1912 18.4936C13.2332 18.4936 13.3297 18.5188 13.401 18.5524C13.6612 18.6699 14.5886 18.9007 15.025 18.9552C15.197 18.9762 15.4614 19.014 15.6124 19.0391C16.4769 19.1692 18.2771 19.0098 19.2212 18.7202C19.6786 18.5817 20.0647 18.4475 20.3962 18.3132C20.7823 18.1537 21.5502 17.7635 21.6593 17.6711C21.6928 17.6376 21.7348 17.6124 21.7516 17.6124C21.8691 17.6124 23.0147 16.7354 23.4847 16.2822C24.2568 15.5394 25.1044 14.3981 25.4485 13.6427C25.4821 13.5714 25.5282 13.4959 25.5534 13.4833C25.5786 13.4665 25.5996 13.4203 25.5996 13.3826C25.5996 13.3196 25.6667 13.1644 25.8388 12.8203C25.8681 12.7615 25.8933 12.6902 25.8933 12.6608C25.8933 12.6314 25.9185 12.5517 25.9521 12.4804C26.036 12.2831 26.1451 11.9516 26.187 11.746C26.208 11.6495 26.2416 11.5362 26.2626 11.4942C26.2836 11.4565 26.3129 11.3264 26.3297 11.2131C26.3465 11.0956 26.3843 10.869 26.4178 10.7095C26.5689 9.97519 26.5689 8.12883 26.4178 7.45743C26.3843 7.30636 26.3381 7.08815 26.3171 6.97486C26.2626 6.66433 26.1829 6.3622 26.1199 6.20694C26.0863 6.1314 26.0612 6.03909 26.0612 6.00552C26.0612 5.97195 26.0234 5.84186 25.973 5.72437C25.9227 5.60268 25.8555 5.43063 25.8178 5.33831C25.4527 4.38995 24.5799 3.00938 23.9588 2.38833C23.7784 2.21209 23.7112 2.17013 23.5979 2.17013C23.4091 2.17013 23.3168 2.22468 23.2119 2.39673C23.065 2.63172 23.0944 2.70725 23.4721 3.16045C23.8078 3.56329 24.0344 3.87381 24.2819 4.26826C24.4666 4.562 24.4876 4.59977 24.6974 5.02359C24.8023 5.2418 24.9072 5.45581 24.9324 5.49357C25.0541 5.72437 25.4023 6.81959 25.4737 7.20565C25.4947 7.33154 25.5324 7.52037 25.5534 7.62528C25.5744 7.73018 25.5996 7.99455 25.608 8.21275L25.6206 8.6114L25.1002 8.63238L24.5799 8.65756L24.4414 8.81702C24.2568 9.02683 24.2568 9.16111 24.4414 9.37092L24.5799 9.53038L25.1002 9.55556L25.6206 9.57654L25.608 9.97519C25.5996 10.1934 25.5702 10.4787 25.5366 10.6046C25.5073 10.7305 25.4695 10.9193 25.4527 11.0243C25.4401 11.1292 25.4023 11.297 25.3688 11.4019C25.3352 11.5068 25.2723 11.7208 25.2219 11.8845C25.1716 12.0439 25.1086 12.2328 25.0792 12.3041C25.0499 12.3713 24.9785 12.5433 24.924 12.6818C24.8023 12.9881 24.4414 13.6721 24.2274 13.9952C23.1699 15.6234 21.6425 16.8655 19.8297 17.5872C19.6241 17.6669 19.3765 17.7551 19.2842 17.7761C19.1919 17.8012 18.9485 17.8642 18.7387 17.9187C18.2687 18.0488 17.4588 18.1705 17.207 18.1495L17.0182 18.1369L16.9972 17.5956C16.9762 17.0711 16.972 17.0543 16.8587 16.9578C16.6531 16.7815 16.3258 16.8403 16.1915 17.0795C16.1622 17.1298 16.1286 17.39 16.116 17.6544L16.095 18.1369L15.9272 18.1495C15.7383 18.1663 14.9243 18.0572 14.5424 17.9649C12.717 17.5159 11.219 16.6556 9.96427 15.3296C9.54464 14.889 8.93618 14.1127 8.86484 13.9281C8.85225 13.8903 8.78511 13.777 8.71797 13.6763C8.4662 13.3028 8.08853 12.4804 7.92068 11.9265C7.88292 11.809 7.81578 11.5908 7.76962 11.4397C7.71926 11.2886 7.6815 11.1208 7.6815 11.062C7.6815 11.0075 7.65212 10.8606 7.62275 10.7389C7.58918 10.613 7.54721 10.2983 7.53043 10.0339L7.50106 9.55556H7.95845C8.49138 9.55556 8.64664 9.49681 8.78931 9.25343L8.87743 9.09817L8.78511 8.93871C8.64244 8.68693 8.49138 8.63238 7.95845 8.63238H7.50106L7.52623 8.20017C7.59757 7.06298 8.15148 5.3509 8.72637 4.49906C8.78931 4.40674 8.85225 4.29764 8.86484 4.25987C8.92779 4.10041 9.51107 3.33669 9.86356 2.95483C10.5643 2.1995 11.1602 1.70854 11.9071 1.27632C12.0162 1.21338 12.1379 1.14204 12.1715 1.12106C12.2051 1.10008 12.3561 1.02035 12.503 0.944815C12.7044 0.839909 12.7884 0.768572 12.8513 0.642684C12.9562 0.437067 12.9268 0.311179 12.7254 0.126543C12.545 -0.0371117 12.4694 -0.041308 12.1925 0.109758Z" fill="white"/>
<path d="M0.308757 8.66186C0.258402 8.67025 0.166084 8.73739 0.107336 8.80453C-0.0437295 8.98917 -0.035337 9.21577 0.132514 9.40879L0.262598 9.55566H2.98178H5.70096L5.83105 9.40879C6.01149 9.20318 6.01149 8.98497 5.83105 8.78355L5.70096 8.63668L3.05312 8.64088C1.59282 8.64088 0.359112 8.65346 0.308757 8.66186Z" fill="white"/>
<path d="M1.5801 12.4552C1.41645 12.6482 1.42484 12.921 1.60108 13.0846L1.73117 13.2063H3.35512H4.97908L5.10497 13.0762C5.27701 12.8958 5.27701 12.6356 5.10497 12.4552L4.97908 12.3251H3.33414H1.6892L1.5801 12.4552Z" fill="white"/>
</svg>
