<svg width="24" height="24" viewBox="0 0 24 24" fill="none" xmlns="http://www.w3.org/2000/svg">
<path d="M15.8058 0.654803C14.7738 0.778231 13.7555 1.2788 13.0767 1.99537C12.6687 2.42737 12.2435 3.14395 12.0172 3.78166C11.9247 4.03537 11.863 4.14166 11.863 4.03195C11.863 3.93252 11.5201 3.30166 11.3487 3.09595C10.8378 2.46509 10.0184 2.08452 9.18867 2.08452C8.60238 2.08452 8.14638 2.24223 7.83438 2.55423C7.01838 3.36337 7.1521 4.77595 8.1601 6.03423C8.27324 6.1748 8.36581 6.30166 8.36581 6.31537C8.36581 6.32909 7.02867 6.34623 5.39324 6.34966L2.41724 6.35995L2.18753 6.46966C1.87896 6.61366 1.63896 6.8468 1.49839 7.12795L1.38867 7.35423V9.73709V12.1199L1.49839 12.3428C1.61839 12.5897 1.69039 12.6788 1.9201 12.8605C2.07439 12.9839 2.38296 13.1314 2.48239 13.1314C2.53039 13.1314 2.53724 13.5702 2.53724 17.6022C2.53724 20.3142 2.55096 22.1382 2.57153 22.2445C2.67096 22.7794 3.12353 23.2319 3.66867 23.3485C3.80924 23.3759 5.95896 23.3828 12.1544 23.3759L20.4515 23.3657L20.6675 23.2662C20.9452 23.1394 21.2435 22.8239 21.3601 22.5394L21.4458 22.3371L21.4561 17.7531L21.463 13.1657L21.559 13.1451C22.0424 13.0422 22.423 12.7028 22.5601 12.2434C22.6287 12.0205 22.6321 11.9451 22.6218 9.66852L22.6115 7.31995L22.5018 7.09023C22.3715 6.81252 22.1521 6.58966 21.8812 6.45595L21.6858 6.35995L18.7818 6.34966C17.1807 6.34623 15.8744 6.32909 15.8744 6.31537C15.8744 6.30166 16.0561 6.20223 16.279 6.09595C17.5235 5.49252 18.3224 4.7108 18.6378 3.78852C18.7235 3.54166 18.7338 3.46623 18.7338 3.01709C18.7372 2.58166 18.727 2.48909 18.655 2.27995C18.3601 1.40223 17.6607 0.788517 16.8001 0.651374C16.5464 0.613661 16.135 0.613661 15.8058 0.654803ZM16.5018 1.70052C17.3521 1.91995 17.8184 2.59537 17.6607 3.3668C17.4824 4.22737 16.5121 4.96795 14.7121 5.62623C14.2698 5.7908 13.3818 6.05137 12.9944 6.13709C12.8915 6.15766 12.7784 6.18509 12.7475 6.19537C12.6961 6.20909 12.6858 6.18509 12.6858 6.06166C12.6858 5.5988 12.8572 4.6628 13.0458 4.09709C13.4504 2.89023 14.3281 2.00566 15.4081 1.71423C15.7167 1.63195 16.2172 1.62509 16.5018 1.70052ZM9.46638 3.14052C9.8161 3.24337 10.1144 3.42852 10.4058 3.71995C10.8275 4.14166 11.0504 4.58395 11.2492 5.3828C11.3555 5.80452 11.4412 6.29823 11.4138 6.32566C11.3864 6.34966 10.7727 6.25023 10.4915 6.17137C10.1452 6.07537 9.6001 5.80452 9.31896 5.59195C9.1921 5.49595 9.01038 5.32109 8.91438 5.20452C8.59896 4.81366 8.33153 4.13823 8.33153 3.73023C8.33153 3.25709 8.88353 2.96909 9.46638 3.14052ZM10.1075 9.74395L10.0972 12.1199L6.41839 12.1302C3.06524 12.1371 2.72581 12.1337 2.61953 12.0822C2.39324 11.9725 2.4001 12.0514 2.4001 9.73023C2.4001 7.84109 2.40696 7.61823 2.45496 7.54623C2.58181 7.36795 2.45153 7.3748 6.42181 7.37137H10.1144L10.1075 9.74395ZM12.8367 7.42623C12.8641 7.4948 12.8641 22.2308 12.8367 22.2994C12.8195 22.3474 12.7132 22.3542 12.0001 22.3542C11.287 22.3542 11.1807 22.3474 11.1635 22.2994C11.1361 22.2308 11.1361 7.4948 11.1635 7.42623C11.1807 7.37823 11.287 7.37137 12.0001 7.37137C12.7132 7.37137 12.8195 7.37823 12.8367 7.42623ZM21.487 7.45366L21.583 7.53595V9.7508V11.9622L21.5041 12.0411L21.4252 12.1199H17.6641H13.903L13.8927 9.74395L13.8858 7.37137H17.6367H21.391L21.487 7.45366ZM10.1075 17.7497L10.0972 22.3371L7.04581 22.3474C4.95781 22.3542 3.95324 22.3439 3.86753 22.3199C3.79896 22.2994 3.70981 22.2445 3.6721 22.1931C3.6001 22.1039 3.6001 22.0937 3.6001 17.6365V13.1657H6.85724H10.1144L10.1075 17.7497ZM20.4001 17.6674C20.4001 22.1417 20.4001 22.1691 20.3315 22.2445C20.2938 22.2857 20.2252 22.3268 20.1841 22.3371C20.143 22.3474 18.7132 22.3508 17.0058 22.3474L13.903 22.3371L13.8927 17.7497L13.8858 13.1657H17.143H20.4001V17.6674Z" fill="white"/>
</svg>
