<svg width="23" height="26" viewBox="0 0 23 26" fill="none" xmlns="http://www.w3.org/2000/svg">
<path d="M22.6444 13.8542C22.6444 13.1014 22.1266 12.374 21.2321 11.8387C21.7415 11.0651 21.8805 10.2875 21.6093 9.64824C21.3143 8.95284 20.5509 8.47615 19.5146 8.31725C19.6829 7.41149 19.5073 6.64082 19.0072 6.15178C18.5329 5.68952 17.7844 5.51167 16.9066 5.64171C16.6815 4.85678 16.2464 4.3048 15.6532 4.06472C14.8527 3.74031 13.8072 4.03603 12.8566 4.85399L13.5029 5.58973C14.1472 5.0348 14.8448 4.79002 15.2804 4.96717C15.6506 5.1172 15.9362 5.61267 16.0439 6.29434L16.1291 6.83119L16.6587 6.68898C17.3937 6.4927 18.0124 6.5499 18.3152 6.84631C18.6356 7.15924 18.679 7.83186 18.428 8.60115L18.2272 9.2164L18.8805 9.23778C19.7966 9.26856 20.5114 9.57731 20.702 10.0265C20.8752 10.4358 20.6512 11.0726 20.1177 11.6892L19.69 12.1837L20.2891 12.4502C21.1211 12.8189 21.6593 13.3705 21.6593 13.8542C21.6593 14.2975 21.2026 14.8032 20.4648 15.1754L19.8784 15.471L20.3304 15.9446C20.9537 16.5965 21.2337 17.3058 21.0447 17.7515C20.8409 18.2329 20.0128 18.5714 19.023 18.5433L18.2369 18.5311L18.5692 19.2366C18.932 20.0059 19.0704 21.0084 18.6328 21.4363C18.2971 21.7642 17.5513 21.7963 16.7316 21.5187L16.1192 21.3116L16.0813 21.9504C16.0305 22.7918 15.7156 23.4495 15.2789 23.6257C14.8397 23.805 14.1371 23.5546 13.4894 22.9924L13.0065 22.5734L12.723 23.144C12.3458 23.9044 11.7955 24.3957 11.321 24.3957C10.8465 24.3957 10.2962 23.9041 9.91849 23.144L9.63497 22.5734L9.15207 22.9924C8.5037 23.5546 7.80087 23.8026 7.36259 23.6257C6.76252 23.3824 6.52432 22.3888 6.55682 21.5674L6.58791 20.797L5.87173 21.1006C4.96636 21.483 4.06854 21.4933 3.68999 21.1235C3.34042 20.781 3.3211 20.0205 3.6408 19.186L3.87268 18.5813L3.22097 18.5278C2.39342 18.46 1.77069 18.1627 1.59643 17.7512C1.40742 17.3054 1.68795 16.5961 2.31068 15.9442L2.76266 15.4706L2.1763 15.1751C1.44079 14.8039 0.98354 14.2977 0.98354 13.8538C0.98354 13.37 1.5216 12.8186 2.35372 12.4483L2.95378 12.1812L2.52604 11.6868C1.99238 11.07 1.76841 10.4333 1.94179 10.0241C2.10427 9.64077 2.65217 9.35618 3.4077 9.26264L3.95752 9.19484L3.82455 8.66234C3.65819 7.99389 3.72653 7.43079 4.00864 7.15455C4.34381 6.82719 5.09073 6.79502 5.90932 7.07214L6.52169 7.27972L6.56139 6.64065C6.61215 5.79887 6.92712 5.14154 7.36382 4.96526C7.80298 4.78602 8.50563 5.03584 9.15277 5.59859L9.80273 4.86582C8.84817 4.03708 7.79771 3.73579 6.99211 4.0635C6.31616 4.33731 5.83625 5.03984 5.65268 5.99323C4.68442 5.79487 3.83614 5.95846 3.31881 6.46262C2.86332 6.90698 2.67606 7.57943 2.7739 8.38853C1.91315 8.59715 1.29078 9.04186 1.03378 9.64737C0.762556 10.287 0.90133 11.0646 1.41093 11.8379C0.517856 12.3742 0 13.1016 0 13.8542C0 14.5465 0.432132 15.2125 1.20558 15.7358C0.589176 16.5654 0.395243 17.4317 0.689655 18.1274C0.960353 18.7667 1.62067 19.2187 2.54062 19.4127C2.29469 20.4109 2.4549 21.284 2.99893 21.8165C3.65521 22.4577 4.68196 22.4703 5.59875 22.2243C5.70116 23.171 6.10044 24.1668 6.99141 24.5277C7.66684 24.801 8.51301 24.6349 9.3316 24.0863C9.87458 24.8988 10.5923 25.3695 11.3227 25.3695C12.0532 25.3695 12.7709 24.8988 13.313 24.0858C14.1321 24.6342 14.9783 24.8004 15.6532 24.5272C16.3281 24.2539 16.8091 23.5503 16.9921 22.5974C17.9609 22.7986 18.8095 22.6339 19.326 22.128C20.0093 21.4606 19.99 20.3921 19.7144 19.4787C20.6561 19.3617 21.5992 18.9657 21.9546 18.1272C22.2496 17.4318 22.0554 16.5654 21.4387 15.7356C22.2121 15.2125 22.6444 14.5465 22.6444 13.8542Z" fill="white"/>
<path d="M9.33594 8.27837C9.33594 8.79499 9.54245 9.29045 9.91003 9.65576C10.2776 10.0211 10.7762 10.2263 11.296 10.2263C11.8159 10.2263 12.3144 10.0211 12.682 9.65576C13.0496 9.29045 13.2561 8.79499 13.2561 8.27837C13.2561 7.37302 12.6289 6.61728 11.7861 6.39971V2.92182C11.7861 2.66602 11.8368 2.41272 11.9353 2.17639C12.0338 1.94006 12.1782 1.72532 12.3602 1.54444C12.5422 1.36356 12.7583 1.22008 12.9961 1.12219C13.2339 1.0243 13.4887 0.973911 13.7462 0.973911C14.0036 0.973911 14.2584 1.0243 14.4962 1.12219C14.7341 1.22008 14.9501 1.36356 15.1321 1.54444C15.3142 1.72532 15.4585 1.94006 15.557 2.17639C15.6555 2.41272 15.7062 2.66602 15.7062 2.92182V3.40839H16.6854V2.92182C16.6854 1.31042 15.3668 0 13.7454 0C12.1239 0 10.8062 1.31042 10.8062 2.92182V6.39971C9.96316 6.61745 9.33594 7.37319 9.33594 8.27837ZM11.2959 7.30525C11.4896 7.30525 11.6789 7.36232 11.84 7.46925C12.001 7.57618 12.1265 7.72816 12.2006 7.90597C12.2747 8.08379 12.2941 8.27946 12.2563 8.46822C12.2185 8.65699 12.1253 8.83039 11.9883 8.96648C11.8514 9.10258 11.6769 9.19526 11.487 9.23281C11.297 9.27035 11.1001 9.25108 10.9212 9.17743C10.7423 9.10378 10.5893 8.97905 10.4818 8.81902C10.3742 8.65899 10.3167 8.47084 10.3167 8.27837C10.317 8.02028 10.4203 7.77282 10.6039 7.59027C10.7874 7.40771 11.0364 7.30496 11.2961 7.30455L11.2959 7.30525Z" fill="white"/>
<path d="M13.7059 14.5527H9.33594V14.9461H13.7059V14.5527Z" fill="white"/>
<path d="M13.7059 15.3396H9.33594V15.7329H13.7059V15.3396Z" fill="white"/>
<path d="M9.33594 16.667C9.33594 17.3562 9.90506 18.0925 11.5028 18.0925C12.236 18.0925 12.8614 17.8181 13.3085 17.5412V16.6663C13.0878 16.8464 12.3883 17.3791 11.5028 17.3791C11.3457 17.3791 10.0583 17.3791 10.0583 16.6663C10.0583 15.5971 13.3086 15.5971 13.3086 14.0403C13.3086 12.7459 12.2252 12.3894 11.1418 12.3894C10.5541 12.3894 9.88638 12.5844 9.69732 12.6446V13.3806L9.87678 13.3349L9.89773 13.3296L9.91833 13.3232C10.2394 13.2212 10.7526 13.1022 11.1418 13.1022C12.5862 13.1022 12.5862 13.7594 12.5862 14.0403C12.5862 14.4098 11.8097 14.7182 11.1861 14.9658C10.3188 15.3104 9.33594 15.7008 9.33594 16.667Z" fill="white"/>
</svg>
