<svg width="22" height="37" viewBox="0 0 22 37" fill="none" xmlns="http://www.w3.org/2000/svg">
<path d="M21.25 18.4286C21.25 18.1429 21.1071 17.8214 20.8929 17.6071L4.25 0.964283C4.03571 0.75 3.71429 0.60714 3.42857 0.60714C3.14286 0.60714 2.82143 0.75 2.60714 0.964283L0.821429 2.75C0.607143 2.96428 0.464286 3.28571 0.464286 3.57143C0.464286 3.85714 0.607143 4.17857 0.821429 4.39286L14.8571 18.4286L0.821429 32.4643C0.607143 32.6786 0.464286 33 0.464286 33.2857C0.464286 33.6071 0.607143 33.8929 0.821429 34.1071L2.60714 35.8929C2.82143 36.1071 3.14286 36.25 3.42857 36.25C3.71429 36.25 4.03571 36.1071 4.25 35.8929L20.8929 19.25C21.1071 19.0357 21.25 18.7143 21.25 18.4286Z" fill="#333333"/>
</svg>
