<svg width="59" height="38" viewBox="0 0 59 38" fill="none" xmlns="http://www.w3.org/2000/svg">
<path d="M56.5 27V21.449C56.5 20.28 56.088 19.142 55.341 18.246L47.469 8.801C46.516 7.656 45.114 7 43.625 7H37.5V3C37.5 1.346 36.154 0 34.5 0H8.5C6.846 0 5.5 1.346 5.5 3V6H0.5V9C0.5 11.757 2.743 14 5.5 14V15C5.5 16.654 6.846 18 8.5 18H9.5V19C9.5 20.654 10.846 22 12.5 22H20.5V24H22.5V11C22.5 8.243 20.257 6 17.5 6H7.5V3C7.5 2.448 7.948 2 8.5 2H34.5C35.052 2 35.5 2.448 35.5 3V23H29.5V25H35.5V27H27.5V29H35.5V31H23.41C22.931 28.167 20.468 26 17.5 26C14.532 26 12.069 28.167 11.59 31H8.5C7.948 31 7.5 30.552 7.5 30V20H5.5V27C4.397 27 3.5 27.897 3.5 29V31C3.5 32.103 4.397 33 5.5 33H11.59C12.069 35.833 14.532 38 17.5 38C20.468 38 22.931 35.833 23.41 33H39.59C40.069 35.833 42.532 38 45.5 38C48.468 38 50.931 35.833 51.41 33H56.5C57.603 33 58.5 32.103 58.5 31V29C58.5 27.897 57.603 27 56.5 27ZM20.5 11V20H12.5C11.948 20 11.5 19.552 11.5 19V18H16.5V16H8.5C7.948 16 7.5 15.552 7.5 15V14H12.5V12H5.5C3.846 12 2.5 10.654 2.5 9V8H17.5C19.154 8 20.5 9.346 20.5 11ZM17.5 36C15.294 36 13.5 34.206 13.5 32C13.5 29.794 15.294 28 17.5 28C19.706 28 21.5 29.794 21.5 32C21.5 34.206 19.706 36 17.5 36ZM45.5 36C43.294 36 41.5 34.206 41.5 32C41.5 29.794 43.294 28 45.5 28C47.706 28 49.5 29.794 49.5 32C49.5 34.206 47.706 36 45.5 36ZM52.5 31H51.41C50.931 28.167 48.468 26 45.5 26C42.532 26 40.069 28.167 39.59 31H37.5V9H43.625C44.519 9 45.359 9.394 45.932 10.081L53.805 19.527C54.253 20.065 54.5 20.748 54.5 21.449V29V30C54.5 30.552 54.052 31 53.5 31H52.5Z" fill="#3E3E3D"/>
</svg>
