<svg width="14" height="19" viewBox="0 0 14 19" fill="none" xmlns="http://www.w3.org/2000/svg">
<path d="M6.29688 17.8984C5.6875 17.0078 4.90234 15.8828 3.94141 14.5234C2.76953 12.8359 1.99609 11.6992 1.62109 11.1133C1.08203 10.2695 0.71875 9.56641 0.53125 9.00391C0.34375 8.41797 0.25 7.75 0.25 7C0.25 5.78125 0.554687 4.65625 1.16406 3.625C1.77344 2.59375 2.59375 1.77344 3.625 1.16406C4.65625 0.554688 5.78125 0.25 7 0.25C8.21875 0.25 9.34375 0.554688 10.375 1.16406C11.4062 1.77344 12.2266 2.59375 12.8359 3.625C13.4453 4.65625 13.75 5.78125 13.75 7C13.75 7.75 13.6562 8.41797 13.4688 9.00391C13.2812 9.56641 12.918 10.2695 12.3789 11.1133C12.0039 11.6992 11.2305 12.8359 10.0586 14.5234L7.70312 17.8984C7.53906 18.1328 7.30469 18.25 7 18.25C6.69531 18.25 6.46094 18.1328 6.29688 17.8984ZM7 9.8125C7.77344 9.8125 8.42969 9.54297 8.96875 9.00391C9.53125 8.44141 9.8125 7.77344 9.8125 7C9.8125 6.22656 9.53125 5.57031 8.96875 5.03125C8.42969 4.46875 7.77344 4.1875 7 4.1875C6.22656 4.1875 5.55859 4.46875 4.99609 5.03125C4.45703 5.57031 4.1875 6.22656 4.1875 7C4.1875 7.77344 4.45703 8.44141 4.99609 9.00391C5.55859 9.54297 6.22656 9.8125 7 9.8125Z"/>
</svg>
