<svg width="21" height="24" viewBox="0 0 21 24" fill="none" xmlns="http://www.w3.org/2000/svg">
<path d="M10.5 12C11.5938 12 12.5938 11.7344 13.5 11.2031C14.4375 10.6719 15.1719 9.95312 15.7031 9.04688C16.2344 8.10938 16.5 7.09375 16.5 6C16.5 4.90625 16.2344 3.90625 15.7031 3C15.1719 2.0625 14.4375 1.32812 13.5 0.796875C12.5938 0.265625 11.5938 0 10.5 0C9.40625 0 8.39062 0.265625 7.45312 0.796875C6.54688 1.32812 5.82812 2.0625 5.29688 3C4.76562 3.90625 4.5 4.90625 4.5 6C4.5 7.09375 4.76562 8.10938 5.29688 9.04688C5.82812 9.95312 6.54688 10.6719 7.45312 11.2031C8.39062 11.7344 9.40625 12 10.5 12ZM14.7188 13.5H13.9219C12.8281 14 11.6875 14.25 10.5 14.25C9.3125 14.25 8.17188 14 7.07812 13.5H6.28125C5.15625 13.5 4.10938 13.7812 3.14062 14.3438C2.17188 14.9062 1.40625 15.6719 0.84375 16.6406C0.28125 17.6094 0 18.6562 0 19.7812V21.75C0 22.375 0.21875 22.9062 0.65625 23.3438C1.09375 23.7812 1.625 24 2.25 24H18.75C19.375 24 19.9062 23.7812 20.3438 23.3438C20.7812 22.9062 21 22.375 21 21.75V19.7812C21 18.6562 20.7188 17.6094 20.1562 16.6406C19.5938 15.6719 18.8281 14.9062 17.8594 14.3438C16.8906 13.7812 15.8438 13.5 14.7188 13.5Z" fill="#3E3E3D"/>
</svg>
