<svg width="24" height="24" viewBox="0 0 24 24" fill="none" xmlns="http://www.w3.org/2000/svg">
<path d="M0.890625 1.17188L5.76562 0.046875C6.01562 -0.015625 6.26562 0.015625 6.51562 0.140625C6.76562 0.265625 6.9375 0.4375 7.03125 0.65625L9.28125 5.90625C9.375 6.15625 9.39062 6.40625 9.32812 6.65625C9.26562 6.875 9.14062 7.0625 8.95312 7.21875L6.14062 9.5625C6.98438 11.375 8.125 13 9.5625 14.4375C10.9688 15.875 12.5938 17.0156 14.4375 17.8594L16.7344 15.0469C16.8906 14.8281 17.0938 14.7031 17.3438 14.6719C17.5938 14.6094 17.8281 14.625 18.0469 14.7188L23.2969 16.9688C23.5469 17.0625 23.7344 17.2344 23.8594 17.4844C23.9844 17.7344 24.0156 17.9844 23.9531 18.2344L22.8281 23.1094C22.7969 23.3906 22.6719 23.6094 22.4531 23.7656C22.2344 23.9219 22 24 21.75 24C17.8125 24 14.1562 23.0156 10.7812 21.0469C7.5 19.1094 4.89062 16.5 2.95312 13.2188C0.984375 9.84375 0 6.1875 0 2.25C0 2 0.078125 1.76563 0.234375 1.54688C0.390625 1.32812 0.609375 1.20313 0.890625 1.17188Z" fill="#3E3E3D"/>
</svg>
