<svg width="21" height="21" viewBox="0 0 21 21" fill="none" xmlns="http://www.w3.org/2000/svg">
<path d="M2.29402 10.2911L6.13402 11.7251L7.62102 16.5051C7.71602 16.8111 8.09102 16.9251 8.33902 16.7211L10.479 14.9761C10.5883 14.8868 10.7242 14.8362 10.8653 14.8322C11.0064 14.8283 11.1448 14.8711 11.259 14.9541L15.119 17.7581C15.1802 17.8026 15.2516 17.8311 15.3267 17.841C15.4017 17.8508 15.478 17.8417 15.5486 17.8144C15.6192 17.7872 15.6819 17.7427 15.7309 17.685C15.7799 17.6273 15.8136 17.5582 15.829 17.4841L18.657 3.87912C18.6736 3.79946 18.6684 3.71681 18.6419 3.63986C18.6155 3.5629 18.5688 3.49449 18.5068 3.4418C18.4448 3.38911 18.3698 3.35409 18.2896 3.34042C18.2094 3.32675 18.127 3.33494 18.051 3.36412L2.29002 9.44412C1.90002 9.59412 1.90402 10.1451 2.29402 10.2911ZM7.38202 10.9611L14.887 6.33912C15.022 6.25612 15.161 6.43912 15.045 6.54612L8.85002 12.3041C8.63252 12.5064 8.49187 12.7778 8.45202 13.0721L8.24102 14.6361C8.21302 14.8451 7.92002 14.8661 7.86102 14.6631L7.05102 11.8121C7.00602 11.6538 7.01389 11.4852 7.07345 11.3318C7.13301 11.1784 7.241 11.0486 7.38102 10.9621L7.38202 10.9611Z" fill="white"/>
</svg>
