<svg width="20" height="20" viewBox="0 0 20 20" fill="none" xmlns="http://www.w3.org/2000/svg">
<path d="M15.7062 8.65997C15.7262 6.30997 13.7252 4.15697 11.2452 3.85897C11.1952 3.85297 11.1422 3.84397 11.0852 3.83497C10.9605 3.81064 10.8341 3.7966 10.7072 3.79297C10.1992 3.79297 10.0632 4.14997 10.0272 4.36297C9.99218 4.56997 10.0252 4.74397 10.1262 4.87997C10.2942 5.10997 10.5902 5.14997 10.8282 5.18197C10.8982 5.19197 10.9632 5.20097 11.0182 5.21297C13.2472 5.71097 13.9972 6.49397 14.3632 8.70297C14.3732 8.75697 14.3772 8.82297 14.3812 8.89397C14.3972 9.15797 14.4312 9.70797 15.0212 9.70797C15.0702 9.70797 15.1232 9.70397 15.1782 9.69497C15.7282 9.61197 15.7112 9.10897 15.7022 8.86797C15.7002 8.79997 15.6982 8.73597 15.7042 8.69297C15.7056 8.68236 15.7063 8.67167 15.7062 8.66097V8.65997Z" fill="white"/>
<path d="M10.5622 2.99599C10.6282 3.00099 10.6912 3.00599 10.7422 3.01399C14.4022 3.57599 16.0842 5.30999 16.5512 8.99699C16.5592 9.05999 16.5602 9.13699 16.5612 9.21699C16.5662 9.50499 16.5752 10.105 17.2192 10.117H17.2392C17.4412 10.117 17.6012 10.057 17.7162 9.93699C17.9162 9.72699 17.9032 9.41499 17.8912 9.16499C17.8883 9.10837 17.8869 9.05169 17.8872 8.99499C17.9332 5.22499 14.6692 1.80499 10.9012 1.67699C10.8858 1.67663 10.8704 1.67763 10.8552 1.67999C10.8403 1.68174 10.8252 1.6824 10.8102 1.68199C10.7732 1.68199 10.7272 1.67899 10.6782 1.67499C10.6182 1.67099 10.5512 1.66699 10.4832 1.66699C9.88322 1.66699 9.76922 2.09299 9.75422 2.34699C9.72122 2.93499 10.2892 2.97699 10.5622 2.99699V2.99599ZM16.3742 13.763C16.2962 13.703 16.2162 13.643 16.1412 13.582C15.7412 13.26 15.3162 12.964 14.9052 12.677L14.6492 12.499C14.1232 12.129 13.6492 11.949 13.2022 11.949C12.6002 11.949 12.0752 12.282 11.6422 12.939C11.4492 13.229 11.2172 13.37 10.9292 13.37C10.7592 13.37 10.5672 13.322 10.3562 13.226C8.65622 12.456 7.44322 11.274 6.74922 9.71499C6.41422 8.96099 6.52222 8.46799 7.11322 8.06699C7.44822 7.83899 8.07322 7.41599 8.02822 6.60499C7.97822 5.68299 5.94522 2.91199 5.08922 2.59699C4.72317 2.46359 4.32197 2.46253 3.95522 2.59399C2.97022 2.92399 2.26422 3.50599 1.91122 4.27399C1.57122 5.01699 1.58622 5.88899 1.95622 6.79599C3.02422 9.41899 4.52622 11.705 6.42022 13.592C8.27422 15.439 10.5522 16.952 13.1922 18.088C13.4302 18.191 13.6802 18.247 13.8622 18.288C13.9242 18.301 13.9782 18.313 14.0172 18.324C14.0387 18.3301 14.0609 18.3335 14.0832 18.334H14.1032C15.3452 18.334 16.8362 17.199 17.2932 15.905C17.6952 14.773 16.9632 14.213 16.3742 13.763V13.763ZM11.1122 5.99199C10.8992 5.99699 10.4572 6.00799 10.3022 6.45899C10.2292 6.66899 10.2382 6.85199 10.3282 7.00199C10.4592 7.22199 10.7122 7.28999 10.9412 7.32699C11.7742 7.45999 12.2022 7.92099 12.2882 8.77599C12.3282 9.17499 12.5962 9.45299 12.9402 9.45299C12.9663 9.45291 12.9923 9.45124 13.0182 9.44799C13.4332 9.39899 13.6342 9.09499 13.6152 8.54299C13.6222 7.96799 13.3212 7.31499 12.8092 6.79399C12.2952 6.27199 11.6752 5.97799 11.1122 5.99199V5.99199Z" fill="white"/>
</svg>
