<?xml version="1.0" encoding="utf-8"?>
<!-- Generator: Adobe Illustrator 21.1.0, SVG Export Plug-In . SVG Version: 6.00 Build 0)  -->
<svg version="1.1" id="Layer_1" xmlns="http://www.w3.org/2000/svg" xmlns:xlink="http://www.w3.org/1999/xlink" x="0px" y="0px"
	 viewBox="0 0 167.4 92.9" style="enable-background:new 0 0 167.4 92.9;" xml:space="preserve">
<style type="text/css">
	.st0{fill:#3E3E3D;}
</style>
<path class="st0" d="M53.9,0.6c-8.5,2.3-14.8,9.7-15.6,18.3c-0.3,2.8-0.2,2.8,3,2.3c8.5-1.3,16-10.2,16-18.9
	C57.3-0.4,57.4-0.3,53.9,0.6z"/>
<path class="st0" d="M52.1,22.7c-0.7,0.2-3.8,1.1-6.9,2.2c-3,1-5.8,1.9-6.2,1.9c-0.4,0-3.2-0.9-6.3-2l-5.6-2h-3.7
	c-3,0-4.1,0.1-6,0.7C2,28.6-3.9,45.7,2.7,66.3C5,73.6,8.3,79.5,13.4,85.8c2.6,3.2,5.1,5.3,7.4,6.4c1.9,0.9,5.7,0.9,8.1,0
	c7.2-2.8,7.2-2.8,10.6-2.9c3.8-0.2,4.9,0.1,9.5,1.9c2.7,1.1,3.7,1.3,6,1.5c3.4,0.2,5.3-0.5,8.2-2.7c4.3-3.3,10.7-13,13.2-20l0.6-1.6
	l-2-1.1c-1-0.6-2.4-1.5-2.9-1.9l-1-0.8l-3.5,2.7c-1.9,1.5-5.2,4.4-7.4,6.6c-4.5,4.3-6.4,5.8-10.2,7.6c-4.2,2.1-6.2,2.1-8.4-0.1
	c-0.7-0.7-1.6-1.2-2-1.2c-1.8,0-3.7-1.5-4-3.2c-0.2-0.8-0.4-1.1-1.4-1.5c-0.6-0.2-1.5-0.7-1.8-1c-0.8-0.7-1.5-2.5-1.3-3.2
	c0.2-0.5-0.1-0.7-1.2-1.2c-1.5-0.7-2.7-2.2-2.7-3.6c0-1.6,1.2-2.5,6.9-5.2l5.4-2.5l0-1.8c0-2.2,0.8-4.1,2.3-5
	c0.8-0.5,1.4-0.6,3.6-0.5c1.5,0.1,4.2,0.5,6,1c4.7,1.2,7.3,1.2,10.3-0.1l2.3-0.9l0.2-3c0.3-4.7,1.3-7.4,4.1-11.3
	c1.2-1.6,2.2-2.6,5.5-5.2c0.6-0.5,0.5-0.6-1.9-2.9c-4.3-4.3-9-6.2-15.3-6.5C55,22.5,52.8,22.6,52.1,22.7z M27.8,31.3
	c2.6,1,5.6,4.1,6.6,6.7c1,2.6,0.9,6-0.1,8.6l-0.8,2l2.2,3.4c1.2,1.8,2.3,3.5,2.3,3.8c0.1,0.3-1,1.1-4.2,2.7
	c-2.4,1.2-4.5,2.2-4.7,2.2c-0.2-0.1-1.3-1.6-2.4-3.3l-2-3.2L22.5,54c-2.3-0.3-4.4-0.9-4.4-1.5c0-0.2,1.9-3,4.3-6.3
	c3.1-4.3,4.2-6,4-6.3c-0.2-0.2-2.2-1.9-4.4-3.8c-3.8-3.1-4.7-4.1-3.9-4.7c0.2-0.1,1-0.4,1.9-0.7C22.2,30.2,25.4,30.4,27.8,31.3z
	 M16.1,42.8c1.8,1.2,3.2,2.3,3.2,2.4c0,0.3-3.4,5-3.8,5.4c-0.4,0.3-0.6,0.2-1.3-0.7c-2.5-3-3.6-9.4-1.6-9.4
	C12.7,40.5,14.4,41.5,16.1,42.8z"/>
<path class="st0" d="M89.2,26.6c-1.5,1.3-0.6,3.8,1.4,3.8c2,0,2.9-2.5,1.4-3.8c-0.5-0.4-1-0.7-1.4-0.7
	C90.3,25.9,89.7,26.2,89.2,26.6z"/>
<path class="st0" d="M98.1,41l0.1,14.5l4.9,0.1c6.3,0.1,9.4-0.3,12.2-1.7c3.3-1.7,5.3-4.5,6.3-8.7c0.9-3.9,0.2-9.4-1.5-12.4
	c-1.6-2.9-5-5.2-8.5-5.9c-0.9-0.2-4.3-0.3-7.6-0.3h-6L98.1,41z M112.8,30.6c2,0.9,4,3.2,4.8,5.4c0.9,2.5,0.8,7.7-0.1,10.1
	c-1.8,4.7-5.4,6.5-12.9,6.3l-3.1-0.1l-0.1-10.9c0-6,0-11.1,0.1-11.4c0.1-0.3,1.1-0.4,4.9-0.3C110.5,29.9,111.3,30,112.8,30.6z"/>
<path class="st0" d="M88.9,34.2c-0.1,0.2-0.1,5.1-0.1,10.9l0.1,10.4h1.7h1.7V44.8V34l-1.6-0.1C89.5,33.8,89,33.9,88.9,34.2z"/>
<path class="st0" d="M131.5,34.4c-2.5,0.9-4.2,2.6-5.5,5.4c-0.6,1.3-0.7,2.1-0.7,5c0,3.2,0.1,3.6,0.9,5.3c1.1,2.3,3.5,4.5,5.6,5.2
	c3.6,1.1,8,0.3,10.5-2c2.5-2.3,3.7-6.6,3.1-10.5c-0.6-3.8-2.3-6.3-5.2-7.8C138.1,33.7,133.8,33.5,131.5,34.4z M137.3,37
	c1.6,0.5,3.7,2.6,4.1,4.2c0.5,1.8,0.4,5.5-0.1,7.2c-1.5,4.4-6.9,5.8-10.3,2.6c-1.6-1.5-2.3-3.5-2.3-6.5
	C128.8,38.9,132.5,35.6,137.3,37z"/>
<path class="st0" d="M154.3,34.5c-2.3,0.9-3.7,2.3-4.8,4.7c-1,2-1,2.3-1,5.6c0,3.4,0,3.6,1.1,5.7c1.8,3.5,4.6,5.2,8.8,5.2
	c3.8,0,6.7-1.5,8.2-4.3c1.3-2.3,1.2-2.7-0.7-2.7c-1.6,0-1.7,0.1-2.3,1.2c-0.8,1.6-1.8,2.2-3.9,2.7c-2.2,0.5-3.9,0-5.6-1.5
	c-1.6-1.5-2.3-3.5-2.3-6.3c0-5.4,3.4-8.7,7.8-7.8c2,0.4,3.3,1.3,4,2.9c0.6,1.1,0.6,1.2,2,1.1c0.8,0,1.5-0.1,1.6-0.2
	c0.1-0.1-0.1-0.9-0.3-1.6c-0.7-1.9-3.1-4.1-5.2-4.8C159.6,33.6,156.2,33.7,154.3,34.5z"/>
<path class="st0" d="M92.7,62.2c-1.9,0.6-3.2,1.9-3.7,3.5c-0.3,1.1-0.3,1.5,0.2,2.5c0.7,1.6,2.2,2.3,6.1,3.4
	c4.8,1.3,6.2,2.9,4.9,5.5c-0.9,1.9-1.9,2.4-4.7,2.5c-3.1,0.1-4.8-0.7-5.8-2.7c-0.6-1.3-1.4-1.8-1.4-0.9c0,1.4,1.6,3.3,3.5,4.1
	c1.5,0.6,4.9,0.6,6.4,0c3.1-1.3,4.3-4.4,2.7-6.9c-0.6-1-2.5-1.8-6-2.7c-3.6-0.9-5-1.9-5-3.9c0-1,0.2-1.5,1-2.3c1-1,2.7-1.7,4.1-1.7
	c2,0,4.5,1.6,5.1,3.1c0.3,0.9,1.1,0.8,1-0.1C100.7,62.9,96.2,61,92.7,62.2z"/>
<path class="st0" d="M138.4,62.2c-0.3,0.3-0.3,0.6-0.1,0.9c0.5,0.5,1.4,0.1,1.2-0.6C139.5,61.7,138.9,61.6,138.4,62.2z"/>
<path class="st0" d="M107,67.3c-3,1.6-4.1,6.6-2.3,10.2c1.1,2.3,2.4,3.1,5.4,3.1c1.9,0,2.5-0.1,3.4-0.7c1.3-0.8,2.4-2.5,1.9-3
	c-0.2-0.3-0.5,0-1,0.8c-0.8,1.4-2.3,2.1-4.4,2.1c-2.7,0-4.9-2-5-4.5l0-1.4l5.5-0.1l5.5-0.1l-0.2-1.4c-0.3-1.9-1.2-3.7-2.4-4.7
	C112,66.7,108.6,66.5,107,67.3z M112.1,68c1.4,0.7,2.5,2.2,2.7,3.9l0.1,1.1h-4.9h-4.9l0-1c0.1-2.3,2.5-4.5,4.9-4.5
	C110.4,67.4,111.4,67.7,112.1,68z"/>
<path class="st0" d="M118.4,73.6c0.1,8.5,0.6,9.4,0.9,1.5c0.1-4.9,0.2-5.5,0.8-6.1c1-1.1,2.3-1.7,3.3-1.5c0.7,0.1,0.9,0.1,0.9-0.3
	s-0.4-0.5-1.4-0.5c-1.2,0-1.6,0.2-2.5,1.1c-0.6,0.6-1.1,1.1-1.2,1.1c-0.1,0-0.1-0.4,0-1c0-0.6-0.2-1.1-0.4-1.1
	C118.4,66.7,118.4,68.1,118.4,73.6z"/>
<path class="st0" d="M125.2,67.1c0,0.2,1.1,3.3,2.4,6.7c2.2,5.7,2.5,6.3,3.1,6.3c0.6,0,1-0.7,3.1-6.3c2.8-7.3,2.7-7,2.1-7
	c-0.3,0-1.2,2-2.7,6.1c-1.2,3.4-2.4,6.1-2.5,6.1c-0.1,0-1.2-2.7-2.5-6.1c-1.3-3.3-2.5-6.1-2.7-6.2C125.3,66.8,125.2,66.9,125.2,67.1
	z"/>
<path class="st0" d="M138.5,73.6c0.1,4.3,0.2,6.9,0.4,6.9c0.2,0,0.3-2.6,0.4-6.9c0.1-6,0-6.9-0.4-6.9
	C138.5,66.8,138.4,67.6,138.5,73.6z"/>
<path class="st0" d="M145.5,67.1c-3.1,1.3-4.6,6.5-2.8,10.2c1.5,3,5.1,4.3,8.2,2.8c1.4-0.7,2.6-2.2,2.6-3.1c0-0.8-0.8-0.3-1.3,0.7
	c-0.7,1.5-2.3,2.2-4.6,2.1c-3.1-0.2-4.6-2.3-4.6-6.2c0-2.8,0.8-4.4,2.8-5.4c0.7-0.4,1.8-0.7,2.3-0.7c1.5,0,3.4,1.1,4.1,2.3
	c0.7,1.1,1.3,1.5,1.3,0.7c0-0.9-1.3-2.4-2.4-3.1C149.8,66.7,146.9,66.5,145.5,67.1z"/>
<path class="st0" d="M158.3,67.5c-1.6,1-2.7,2.9-2.8,5.4c-0.3,3.7,1,6.3,3.8,7.4c1.7,0.7,4.3,0.4,5.8-0.5c1.1-0.7,2.4-2.5,2.2-2.9
	c-0.3-0.5-0.7-0.3-1.3,0.8c-0.8,1.4-2.3,2.1-4.5,2.1c-2.7,0-4.8-1.9-4.9-4.6l-0.1-1.2l5.5-0.1l5.5-0.1v-0.9c0-2.3-1.3-4.7-3.1-5.6
	C163,66.5,159.8,66.6,158.3,67.5z M164.5,68.5c1.1,0.9,2.2,3.3,1.9,4.1c-0.2,0.4-1,0.5-5,0.5c-2.9,0-4.8-0.1-5-0.3
	c-0.3-0.5,0.5-2.6,1.4-3.6c0.4-0.5,1.2-1.1,1.7-1.3C160.9,67.2,163.2,67.5,164.5,68.5z"/>
</svg>
