<svg width="24" height="24" viewBox="0 0 24 24" fill="none" xmlns="http://www.w3.org/2000/svg">
<path d="M16 12C16 14.2031 14.2031 16 12 16C9.79688 16 8 14.2031 8 12C8 9.79687 9.79688 8 12 8C14.2031 8 16 9.79687 16 12ZM18.1562 12C18.1562 8.59375 15.4063 5.84375 12 5.84375C8.59375 5.84375 5.84375 8.59375 5.84375 12C5.84375 15.4062 8.59375 18.1562 12 18.1562C15.4063 18.1562 18.1562 15.4062 18.1562 12ZM19.8438 5.59375C19.8438 4.79687 19.2031 4.15625 18.4063 4.15625C17.6094 4.15625 16.9688 4.79687 16.9688 5.59375C16.9688 6.39062 17.6094 7.03125 18.4063 7.03125C19.2031 7.03125 19.8438 6.39062 19.8438 5.59375ZM12 2.15625C13.75 2.15625 17.5 2.01562 19.0781 2.64062C19.625 2.85937 20.0313 3.125 20.4531 3.54687C20.875 3.96875 21.1406 4.375 21.3594 4.92187C21.9844 6.5 21.8438 10.25 21.8438 12C21.8438 13.75 21.9844 17.5 21.3594 19.0781C21.1406 19.625 20.875 20.0312 20.4531 20.4531C20.0313 20.875 19.625 21.1406 19.0781 21.3594C17.5 21.9844 13.75 21.8437 12 21.8437C10.25 21.8437 6.5 21.9844 4.92188 21.3594C4.375 21.1406 3.96875 20.875 3.54688 20.4531C3.125 20.0312 2.85938 19.625 2.64063 19.0781C2.01563 17.5 2.15625 13.75 2.15625 12C2.15625 10.25 2.01563 6.5 2.64063 4.92187C2.85938 4.375 3.125 3.96875 3.54688 3.54687C3.96875 3.125 4.375 2.85937 4.92188 2.64062C6.5 2.01562 10.25 2.15625 12 2.15625ZM24 12C24 10.3437 24.0156 8.70312 23.9219 7.04687C23.8281 5.125 23.3906 3.42187 21.9844 2.01562C20.5781 0.609374 18.875 0.171874 16.9531 0.0781248C15.2969 -0.0156257 13.6563 -1.19209e-06 12 -1.19209e-06C10.3438 -1.19209e-06 8.70313 -0.0156257 7.04688 0.0781248C5.125 0.171874 3.42188 0.609374 2.01563 2.01562C0.609375 3.42187 0.171875 5.125 0.078125 7.04687C-0.015625 8.70312 0 10.3437 0 12C0 13.6562 -0.015625 15.2969 0.078125 16.9531C0.171875 18.875 0.609375 20.5781 2.01563 21.9844C3.42188 23.3906 5.125 23.8281 7.04688 23.9219C8.70313 24.0156 10.3438 24 12 24C13.6563 24 15.2969 24.0156 16.9531 23.9219C18.875 23.8281 20.5781 23.3906 21.9844 21.9844C23.3906 20.5781 23.8281 18.875 23.9219 16.9531C24.0156 15.2969 24 13.6562 24 12Z" fill="#FAD200"/>
</svg>
