<svg width="24" height="28" viewBox="0 0 24 28" fill="none" xmlns="http://www.w3.org/2000/svg">
<path d="M15.1719 19.4375C15.1719 18.75 14.9688 18.3906 14.5625 18.3906C14.3281 18.3906 14.0938 18.5 13.8594 18.7344V23.4375C14.0938 23.6719 14.3281 23.7812 14.5625 23.7812C14.9688 23.7812 15.1719 23.4375 15.1719 22.7344V19.4375ZM20.4531 19.4531C20.4531 18.75 20.2188 18.3906 19.75 18.3906C19.2813 18.3906 19.0469 18.75 19.0469 19.4531V20.1719H20.4531V19.4531ZM5.35938 16.0469V24.9375H3.79688V16.0469H2.15625V14.5781H7.03125V16.0469H5.35938ZM9.85938 24.9375V24.0938C9.29688 24.7344 8.76563 25.0469 8.26563 25.0469C7.8125 25.0469 7.48438 24.8594 7.35938 24.4688C7.28125 24.2344 7.23438 23.875 7.23438 23.3281V17.2187H8.625V22.9062C8.625 23.2344 8.625 23.4062 8.64062 23.4531C8.67188 23.6719 8.78125 23.7812 8.96875 23.7812C9.25 23.7812 9.54688 23.5625 9.85938 23.125V17.2187H11.25V24.9375H9.85938ZM16.5625 22.625C16.5625 23.3437 16.5313 23.8594 16.4219 24.1875C16.25 24.75 15.8594 25.0469 15.3125 25.0469C14.8125 25.0469 14.3281 24.7656 13.8594 24.1875V24.9375H12.4688V14.5781H13.8594V17.9687C14.3125 17.4062 14.7969 17.125 15.3125 17.125C15.8594 17.125 16.25 17.4219 16.4219 18C16.5313 18.3125 16.5625 18.8281 16.5625 19.5469V22.625ZM21.8438 22.4687C21.8438 22.9219 21.8438 23.2344 21.8125 23.375C21.7813 23.6875 21.6563 23.9687 21.4844 24.2188C21.1094 24.7656 20.5313 25.0469 19.7969 25.0469C19.0625 25.0469 18.5156 24.7813 18.1094 24.25C17.8125 23.875 17.6563 23.2656 17.6563 22.4375V19.7344C17.6563 18.9062 17.7969 18.3125 18.0938 17.9219C18.5 17.3906 19.0469 17.125 19.7656 17.125C20.4688 17.125 21.0156 17.3906 21.4219 17.9219C21.7031 18.3125 21.8438 18.9062 21.8438 19.7344V21.3437H19.0469V22.7031C19.0469 23.4219 19.2813 23.7812 19.7656 23.7812C20.1094 23.7812 20.3125 23.5937 20.3906 23.2187C20.4063 23.1406 20.4219 22.8281 20.4219 22.2656H21.8438V22.4687ZM12.3438 8.20312C12.3438 8.92187 12.1406 9.29687 11.6719 9.29687C11.2188 9.29687 11 8.92187 11 8.20312V4.92187C11 4.20312 11.2188 3.84375 11.6719 3.84375C12.1406 3.84375 12.3438 4.20312 12.3438 4.92187V8.20312ZM23.5781 19.9375C23.5781 18.125 23.5781 16.2187 23.1719 14.4687C22.8906 13.2344 21.875 12.3281 20.6719 12.1875C17.7969 11.875 14.8906 11.875 12 11.875C9.10938 11.875 6.20313 11.875 3.34375 12.1875C2.125 12.3281 1.125 13.2344 0.828125 14.4687C0.4375 16.2187 0.421875 18.125 0.421875 19.9375C0.421875 21.7344 0.421875 23.6562 0.828125 25.4063C1.10938 26.6406 2.125 27.5469 3.32813 27.6719C6.20313 28 9.10938 28 12 28C14.8906 28 17.7969 28 20.6719 27.6719C21.875 27.5469 22.875 26.6406 23.1719 25.4063C23.5625 23.6562 23.5781 21.7344 23.5781 19.9375ZM7.98438 -1.90735e-06L6.92188 4.10937L5.8125 -1.90735e-06H4.15625C4.48438 0.968749 4.82813 1.95312 5.17188 2.92187C5.67188 4.375 5.98438 5.46875 6.125 6.23437V10.4687H7.6875V6.23437L9.57813 -1.90735e-06H7.98438ZM13.7656 5.20312C13.7656 4.375 13.625 3.76562 13.3281 3.375C12.9375 2.84375 12.3906 2.57812 11.6719 2.57812C10.9688 2.57812 10.4219 2.84375 10.0313 3.375C9.73438 3.76562 9.59375 4.375 9.59375 5.20312V7.9375C9.59375 8.76562 9.73438 9.375 10.0313 9.78125C10.4219 10.3125 10.9688 10.5781 11.6719 10.5781C12.3906 10.5781 12.9375 10.3125 13.3281 9.78125C13.625 9.39062 13.7656 8.76562 13.7656 7.9375V5.20312ZM19 2.67187H17.5781V8.625C17.2656 9.07812 16.9688 9.29687 16.6875 9.29687C16.5 9.29687 16.3906 9.17187 16.3594 8.95312C16.3438 8.92187 16.3438 8.73437 16.3438 8.40625V2.67187H14.9219V8.82812C14.9219 9.39062 14.9688 9.76562 15.0469 10C15.1875 10.3906 15.5156 10.5781 15.9688 10.5781C16.4844 10.5781 17.0156 10.2656 17.5781 9.60937V10.4687H19V2.67187Z" fill="#FAD200"/>
</svg>
