<svg width="31" height="37" viewBox="0 0 31 37" fill="none" xmlns="http://www.w3.org/2000/svg">
<path d="M19.5067 25.1339C19.5067 24.25 19.2455 23.7879 18.7232 23.7879C18.4219 23.7879 18.1205 23.9286 17.8192 24.2299V30.2768C18.1205 30.5781 18.4219 30.7188 18.7232 30.7188C19.2455 30.7188 19.5067 30.2768 19.5067 29.3728V25.1339ZM26.2969 25.154C26.2969 24.25 25.9955 23.7879 25.3929 23.7879C24.7902 23.7879 24.4888 24.25 24.4888 25.154V26.0781H26.2969V25.154ZM6.89063 20.7746V32.2054H4.8817V20.7746H2.77232V18.8862H9.04018V20.7746H6.89063ZM12.6763 32.2054V31.1205C11.9531 31.9442 11.2701 32.346 10.6272 32.346C10.0446 32.346 9.62277 32.1049 9.46205 31.6027C9.36161 31.3013 9.30134 30.8393 9.30134 30.1362V22.2812H11.0893V29.5938C11.0893 30.0156 11.0893 30.2366 11.1094 30.2969C11.1496 30.5781 11.2902 30.7188 11.5312 30.7188C11.8929 30.7188 12.2746 30.4375 12.6763 29.875V22.2812H14.4643V32.2054H12.6763ZM21.2946 29.2321C21.2946 30.1562 21.2545 30.8192 21.1138 31.2411C20.8929 31.9643 20.3906 32.346 19.6875 32.346C19.0446 32.346 18.4219 31.9844 17.8192 31.2411V32.2054H16.0313V18.8862H17.8192V23.2455C18.4018 22.5223 19.0246 22.1607 19.6875 22.1607C20.3906 22.1607 20.8929 22.5424 21.1138 23.2857C21.2545 23.6875 21.2946 24.3504 21.2946 25.2746V29.2321ZM28.0848 29.0312C28.0848 29.6138 28.0848 30.0156 28.0446 30.1964C28.0045 30.5982 27.8438 30.9598 27.6228 31.2812C27.1406 31.9844 26.3973 32.346 25.4531 32.346C24.5089 32.346 23.8058 32.0045 23.2835 31.3214C22.9018 30.8393 22.7009 30.0558 22.7009 28.9911V25.5156C22.7009 24.4509 22.8817 23.6875 23.2634 23.1853C23.7857 22.5022 24.4888 22.1607 25.4129 22.1607C26.317 22.1607 27.0201 22.5022 27.5424 23.1853C27.904 23.6875 28.0848 24.4509 28.0848 25.5156V27.5848H24.4888V29.3326C24.4888 30.2567 24.7902 30.7188 25.4129 30.7188C25.8549 30.7188 26.1161 30.4777 26.2165 29.9955C26.2366 29.8951 26.2567 29.4933 26.2567 28.7701H28.0848V29.0312ZM15.8705 10.6897C15.8705 11.6138 15.6094 12.096 15.0067 12.096C14.4241 12.096 14.1429 11.6138 14.1429 10.6897V6.47098C14.1429 5.54687 14.4241 5.08482 15.0067 5.08482C15.6094 5.08482 15.8705 5.54687 15.8705 6.47098V10.6897ZM30.3147 25.7768C30.3147 23.4464 30.3147 20.9955 29.7924 18.7455C29.4308 17.1585 28.125 15.9933 26.5781 15.8125C22.8817 15.4107 19.1451 15.4107 15.4286 15.4107C11.7121 15.4107 7.97545 15.4107 4.29911 15.8125C2.73214 15.9933 1.44643 17.1585 1.06473 18.7455C0.5625 20.9955 0.542411 23.4464 0.542411 25.7768C0.542411 28.0871 0.542411 30.558 1.06473 32.808C1.42634 34.3951 2.73214 35.5603 4.27902 35.721C7.97545 36.1429 11.7121 36.1429 15.4286 36.1429C19.1451 36.1429 22.8817 36.1429 26.5781 35.721C28.125 35.5603 29.4107 34.3951 29.7924 32.808C30.2946 30.558 30.3147 28.0871 30.3147 25.7768ZM10.2656 0.142855L8.89955 5.42634L7.47321 0.142855H5.34375C5.76562 1.38839 6.20759 2.65402 6.64955 3.89955C7.29241 5.76786 7.6942 7.17411 7.875 8.15848V13.6027H9.88393V8.15848L12.3147 0.142855H10.2656ZM17.6987 6.83259C17.6987 5.76786 17.5179 4.98437 17.1362 4.48214C16.6339 3.79911 15.9308 3.45759 15.0067 3.45759C14.1027 3.45759 13.3996 3.79911 12.8973 4.48214C12.5156 4.98437 12.3348 5.76786 12.3348 6.83259V10.3482C12.3348 11.4129 12.5156 12.1964 12.8973 12.7188C13.3996 13.4018 14.1027 13.7433 15.0067 13.7433C15.9308 13.7433 16.6339 13.4018 17.1362 12.7188C17.5179 12.2165 17.6987 11.4129 17.6987 10.3482V6.83259ZM24.4286 3.57812H22.6004V11.2321C22.1987 11.8147 21.817 12.096 21.4554 12.096C21.2143 12.096 21.0737 11.9353 21.0335 11.654C21.0134 11.6138 21.0134 11.3728 21.0134 10.9509V3.57812H19.1853V11.4933C19.1853 12.2165 19.2455 12.6987 19.346 13C19.5268 13.5022 19.9487 13.7433 20.5312 13.7433C21.1942 13.7433 21.8772 13.3415 22.6004 12.4978V13.6027H24.4286V3.57812Z" fill="#fff"/>
</svg>
