<svg width="110" height="108" viewBox="0 0 110 108" fill="none" xmlns="http://www.w3.org/2000/svg">
<g clip-path="url(#clip0)">
<path d="M17.4785 29.5709V19.2708C17.4785 18.7246 17.6976 18.2007 18.0876 17.8144C18.4776 17.4282 19.0065 17.2112 19.5581 17.2112H29.9577L17.4785 29.5709Z" fill="url(#paint0_linear)"/>
<path d="M100.676 0.730469H9.15846C6.95184 0.730469 4.83559 1.59865 3.27527 3.14403C1.71496 4.68941 0.838379 6.78539 0.838379 8.97089V70.7694C0.838132 71.8517 1.05316 72.9234 1.47117 73.9234C1.88918 74.9234 2.50199 75.8321 3.27461 76.5974C4.04722 77.3628 4.96451 77.97 5.97407 78.3842C6.98363 78.7985 8.06569 79.0117 9.15846 79.0117H42.4378V93.4282C42.4378 93.9745 42.2187 94.4983 41.8287 94.8846C41.4388 95.2709 40.9098 95.4879 40.3583 95.4879H32.0382C30.3834 95.4879 28.7963 96.1389 27.6261 97.2979C26.456 98.4568 25.7986 100.029 25.7986 101.668V103.727H15.398V107.854H94.4397V103.734H84.0363V101.674C84.0363 100.035 83.379 98.4634 82.2088 97.3044C81.0387 96.1455 79.4516 95.4944 77.7968 95.4944H69.4767C69.203 95.4944 68.9321 95.4409 68.6793 95.337C68.4266 95.2331 68.1971 95.0808 68.0039 94.8888C67.8107 94.6969 67.6576 94.4691 67.5535 94.2184C67.4494 93.9678 67.3963 93.6992 67.3971 93.4282V79.0117H100.676C102.883 79.0117 104.999 78.1435 106.56 76.5981C108.12 75.0527 108.997 72.9567 108.997 70.7713V8.97275C108.997 7.89045 108.782 6.8187 108.364 5.81871C107.946 4.81872 107.333 3.91008 106.56 3.14469C105.788 2.3793 104.87 1.77215 103.861 1.35791C102.851 0.943675 101.769 0.730469 100.676 0.730469V0.730469ZM73.6367 99.6118H77.7968C78.3481 99.6123 78.8767 99.8296 79.2663 100.216C79.6559 100.602 79.8747 101.126 79.8744 101.672V103.732H29.9577V101.672C29.9577 101.402 30.0115 101.134 30.116 100.884C30.2205 100.634 30.3737 100.407 30.5668 100.216C30.7599 100.025 30.9892 99.873 31.2415 99.7695C31.4938 99.666 31.7642 99.6127 32.0373 99.6127H73.6367V99.6118ZM63.6177 95.4916H46.2126C46.4608 94.8311 46.5909 94.1329 46.5969 93.4282V79.0117H63.2371V93.4282C63.2429 94.1326 63.3717 94.8307 63.6177 95.4916V95.4916ZM104.834 70.7713C104.834 71.864 104.395 72.912 103.615 73.6847C102.835 74.4574 101.777 74.8915 100.674 74.8915H9.15846C8.05515 74.8915 6.99702 74.4574 6.21687 73.6847C5.43671 72.912 4.99842 71.864 4.99842 70.7713V8.97275C4.99817 8.43152 5.10559 7.89554 5.31454 7.39544C5.52349 6.89534 5.82988 6.44091 6.2162 6.05812C6.60252 5.67532 7.0612 5.37167 7.56605 5.16449C8.07089 4.95731 8.61199 4.85068 9.15846 4.85068H100.676C101.78 4.85068 102.838 5.28477 103.618 6.05746C104.398 6.83015 104.837 7.87814 104.837 8.97089L104.834 70.7713Z" fill="url(#paint1_linear)"/>
<path d="M96.5162 8.97095H13.3182C12.2149 8.97095 11.1568 9.40504 10.3767 10.1777C9.59649 10.9504 9.1582 11.9984 9.1582 13.0912V62.529C9.1582 63.6218 9.59649 64.6698 10.3767 65.4425C11.1568 66.2152 12.2149 66.6493 13.3182 66.6493H96.5162C97.6195 66.6493 98.6776 66.2152 99.4578 65.4425C100.238 64.6698 100.676 63.6218 100.676 62.529V13.0912C100.676 11.9984 100.238 10.9504 99.4578 10.1777C98.6776 9.40504 97.6195 8.97095 96.5162 8.97095V8.97095ZM96.5162 62.5318H13.3182V13.0912H96.5162V62.5318Z" fill="url(#paint2_linear)"/>
<path d="M96.5164 68.7117H88.1963V72.8319H96.5164V68.7117Z" fill="url(#paint3_linear)"/>
<path d="M84.0359 68.7117H75.7158V72.8319H84.0359V68.7117Z" fill="url(#paint4_linear)"/>
<path d="M96.5164 68.7117H88.1963V72.8319H96.5164V68.7117Z" fill="url(#paint5_linear)"/>
<path d="M67.4617 32.8824C67.4652 32.0795 67.3081 31.2838 66.9996 30.5413C66.691 29.7988 66.237 29.1241 65.6638 28.5562C65.0907 27.9884 64.4096 27.5385 63.66 27.2327C62.9104 26.9268 62.1071 26.771 61.2964 26.7742V32.8824H67.4617Z" fill="url(#paint6_linear)"/>
<path d="M67.3875 34.2124C67.5639 32.8713 67.427 31.508 66.9873 30.2276C66.5477 28.9472 65.8171 27.7838 64.8518 26.8273C63.8865 25.8707 62.7123 25.1464 61.4198 24.7102C60.1272 24.2741 58.7508 24.1377 57.3967 24.3116C53.4302 24.8095 50.2268 27.9804 49.7222 31.9089C49.5458 33.25 49.6827 34.6133 50.1224 35.8938C50.562 37.1742 51.2926 38.3375 52.2579 39.2941C53.2232 40.2507 54.3974 40.975 55.6899 41.4111C56.9824 41.8473 58.3589 41.9837 59.713 41.8097C63.6795 41.309 66.8829 38.1446 67.3875 34.2124ZM51.1195 34.3288C50.848 32.7661 51.0857 31.1585 51.7982 29.7386C52.5107 28.3187 53.661 27.1603 55.0825 26.431C56.5041 25.7018 58.1231 25.4396 59.7051 25.6824C61.2871 25.9252 62.7501 26.6605 63.8821 27.7817C65.0141 28.9028 65.7564 30.3518 66.0016 31.9186C66.2468 33.4855 65.982 35.089 65.2457 36.4969C64.5095 37.9049 63.3398 39.0442 61.9062 39.7498C60.4726 40.4555 58.8494 40.691 57.2717 40.4221C55.7368 40.1591 54.3217 39.4323 53.2202 38.3415C52.1188 37.2506 51.385 35.8489 51.1195 34.3288Z" fill="url(#paint7_linear)"/>
<path d="M41.046 53.2612L47.8033 47.3224C48.0718 47.0807 48.2382 46.7475 48.269 46.3896C48.2998 46.0316 48.1929 45.6753 47.9697 45.3921L46.6184 43.7057L50.0398 40.907C51.3168 42.2752 52.9104 43.3155 54.6834 43.9383C56.4564 44.561 58.3557 44.7476 60.2177 44.4819C65.3306 43.7736 69.4267 39.6822 70.0986 34.6164C70.3373 32.8607 70.165 31.0742 69.5951 29.395C69.0253 27.7157 68.0731 26.1888 66.8121 24.9323C65.5512 23.6758 64.0154 22.7234 62.3234 22.1488C60.6315 21.5741 58.8288 21.3926 57.0547 21.6183C51.8807 22.2623 47.7047 26.3779 47.013 31.4967C46.6034 34.4559 47.3761 37.4567 49.1668 39.86L45.7633 42.6419L44.4777 41.0364C44.3645 40.8928 44.2226 40.7737 44.061 40.6866C43.8993 40.5995 43.7213 40.5462 43.538 40.5301C43.3562 40.5141 43.1731 40.5353 42.9999 40.5924C42.8268 40.6496 42.6673 40.7415 42.5316 40.8624L35.7743 46.8002C35.0911 47.4198 34.6688 48.2716 34.5915 49.1858C34.5141 50.1 34.7875 51.0095 35.357 51.7329L36.23 52.8237C36.511 53.1809 36.8631 53.477 37.2645 53.6936C37.6659 53.9102 38.108 54.0428 38.5633 54.083C39.0119 54.122 39.4638 54.0692 39.8909 53.9278C40.318 53.7864 40.7112 53.5595 41.046 53.2612ZM57.2088 22.9669C58.7718 22.7646 60.3608 22.9207 61.8533 23.4231C63.3457 23.9255 64.7017 24.7608 65.8166 25.8644C66.9315 26.9681 67.7755 28.3107 68.2834 29.7886C68.7914 31.2665 68.9498 32.8403 68.7464 34.3884C68.1647 38.92 64.4698 42.5786 59.8935 43.1556C58.3313 43.3566 56.7434 43.1998 55.2521 42.6971C53.7608 42.1944 52.406 41.3593 51.292 40.2562C50.1779 39.1531 49.3345 37.8115 48.8266 36.3346C48.3187 34.8577 48.1599 33.285 48.3625 31.7378C48.9422 27.2043 52.6362 23.5439 57.2125 22.9669H57.2088ZM43.7138 49.1028L40.1974 44.7145L41.3316 43.7122L44.8499 48.1032L43.7138 49.1028ZM46.8984 46.2372C46.9052 46.247 46.9086 46.2588 46.9078 46.2707C46.9085 46.2841 46.9041 46.2974 46.8956 46.3079L45.877 47.2032L42.3559 42.8094L43.4065 41.8787L46.8984 46.2372ZM37.306 51.9814L36.4311 50.8953C35.6906 49.9721 35.8043 48.5928 36.6839 47.824L39.1722 45.6266L42.6867 50.0121L40.1373 52.2532C39.9416 52.4287 39.7116 52.5625 39.4615 52.6462C39.2114 52.73 38.9466 52.7619 38.6836 52.74C38.4136 52.7141 38.152 52.6334 37.915 52.5028C37.678 52.3723 37.4706 52.1948 37.306 51.9814Z" fill="url(#paint8_linear)"/>
</g>
<defs>
<linearGradient id="paint0_linear" x1="23.7181" y1="17.2112" x2="23.7181" y2="29.5709" gradientUnits="userSpaceOnUse">
<stop stop-color="#FF9800"/>
<stop offset="1" stop-color="#FF2E00" stop-opacity="0.64"/>
</linearGradient>
<linearGradient id="paint1_linear" x1="54.9175" y1="0.730469" x2="54.9175" y2="107.854" gradientUnits="userSpaceOnUse">
<stop stop-color="#FF9800"/>
<stop offset="1" stop-color="#FF2E00" stop-opacity="0.64"/>
</linearGradient>
<linearGradient id="paint2_linear" x1="54.9172" y1="8.97095" x2="54.9172" y2="66.6493" gradientUnits="userSpaceOnUse">
<stop stop-color="#FF9800"/>
<stop offset="1" stop-color="#FF2E00" stop-opacity="0.64"/>
</linearGradient>
<linearGradient id="paint3_linear" x1="92.3563" y1="68.7117" x2="92.3563" y2="72.8319" gradientUnits="userSpaceOnUse">
<stop stop-color="#FF9800"/>
<stop offset="1" stop-color="#FF2E00" stop-opacity="0.64"/>
</linearGradient>
<linearGradient id="paint4_linear" x1="79.8759" y1="68.7117" x2="79.8759" y2="72.8319" gradientUnits="userSpaceOnUse">
<stop stop-color="#FF9800"/>
<stop offset="1" stop-color="#FF2E00" stop-opacity="0.64"/>
</linearGradient>
<linearGradient id="paint5_linear" x1="92.3563" y1="68.7117" x2="92.3563" y2="72.8319" gradientUnits="userSpaceOnUse">
<stop stop-color="#FF9800"/>
<stop offset="1" stop-color="#FF2E00" stop-opacity="0.64"/>
</linearGradient>
<linearGradient id="paint6_linear" x1="64.3791" y1="26.7742" x2="64.3791" y2="32.8824" gradientUnits="userSpaceOnUse">
<stop stop-color="#FF9800"/>
<stop offset="1" stop-color="#FF2E00" stop-opacity="0.64"/>
</linearGradient>
<linearGradient id="paint7_linear" x1="58.5548" y1="24.2383" x2="58.5548" y2="41.8831" gradientUnits="userSpaceOnUse">
<stop stop-color="#FF9800"/>
<stop offset="1" stop-color="#FF2E00" stop-opacity="0.64"/>
</linearGradient>
<linearGradient id="paint8_linear" x1="52.3908" y1="21.5242" x2="52.3908" y2="54.0954" gradientUnits="userSpaceOnUse">
<stop stop-color="#FF9800"/>
<stop offset="1" stop-color="#FF2E00" stop-opacity="0.64"/>
</linearGradient>
<clipPath id="clip0">
<rect width="110" height="107.122" fill="white" transform="translate(0 0.730469)"/>
</clipPath>
</defs>
</svg>
