<svg width="106" height="105" viewBox="0 0 106 105" fill="none" xmlns="http://www.w3.org/2000/svg">
<g clip-path="url(#clip0)">
<path d="M43.0449 10.1118H29.1079V12.0951H43.0449V10.1118Z" fill="url(#paint0_linear)"/>
<path d="M76.892 10.1118H62.9551V12.0951H76.892V10.1118Z" fill="url(#paint1_linear)"/>
<path d="M84.8559 12.0953H80.8715V10.111C80.8715 9.05855 80.4518 8.04916 79.7046 7.30494C78.9574 6.56071 77.9439 6.14261 76.8872 6.14261H62.1108C61.3392 4.37463 60.0659 2.86966 58.4473 1.81259C56.8288 0.755513 54.9354 0.192383 52.9999 0.192383C51.0644 0.192383 49.171 0.755513 47.5524 1.81259C45.9339 2.86966 44.6605 4.37463 43.8889 6.14261H29.108C28.0513 6.14261 27.0379 6.56071 26.2907 7.30494C25.5435 8.04916 25.1237 9.05855 25.1237 10.111V12.0953H21.1394C19.0276 12.0964 17.0025 12.9326 15.5092 14.4199C14.016 15.9072 13.1765 17.9242 13.1753 20.0276V95.3826C13.1765 97.4861 14.016 99.503 15.5092 100.99C17.0025 102.478 19.0276 103.314 21.1394 103.315H84.8559C86.9671 103.313 88.9911 102.476 90.4837 100.989C91.9762 99.5018 92.8151 97.4854 92.8163 95.3826V20.0276C92.8151 17.9248 91.9762 15.9084 90.4837 14.4212C88.9911 12.9339 86.9671 12.0974 84.8559 12.0953ZM76.8918 10.111V12.0953H62.9548V10.111H76.8918ZM47.0266 10.111C47.0805 8.56911 47.7334 7.10827 48.8476 6.03646C49.9619 4.96465 51.4504 4.36561 52.9994 4.36561C54.5485 4.36561 56.037 4.96465 57.1512 6.03646C58.2655 7.10827 58.9184 8.56911 58.9723 10.111V23.9924H47.0266V10.111ZM47.0266 27.9581H58.9732C60.0299 27.9581 61.0433 27.54 61.7905 26.7958C62.5377 26.0516 62.9575 25.0422 62.9575 23.9897H80.8734V85.4643H25.1264V23.9933H43.045C43.0455 25.045 43.4651 26.0535 44.2116 26.7973C44.9582 27.5411 45.9707 27.9592 47.0266 27.9599V27.9581ZM25.1735 91.297L25.1282 89.4336H80.8734L80.9186 91.297H25.1735ZM29.108 10.1119H43.045V12.0962H29.108V10.1119ZM88.8375 95.3826C88.8375 96.4351 88.4177 97.4445 87.6705 98.1887C86.9233 98.933 85.9099 99.3511 84.8531 99.3511H21.1439C20.0872 99.3511 19.0738 98.933 18.3266 98.1887C17.5794 97.4445 17.1596 96.4351 17.1596 95.3826V20.0276C17.1596 18.9751 17.5794 17.9657 18.3266 17.2215C19.0738 16.4773 20.0872 16.0592 21.1439 16.0592H43.045V20.0276H25.1264C24.0697 20.0276 23.0563 20.4457 22.3091 21.1899C21.5619 21.9341 21.1421 22.9435 21.1421 23.996V91.4196C21.1421 92.4721 21.5619 93.4815 22.3091 94.2257C23.0563 94.9699 24.0697 95.388 25.1264 95.388H80.8734C81.9301 95.388 82.9435 94.9699 83.6907 94.2257C84.4379 93.4815 84.8577 92.4721 84.8577 91.4196V23.9933C84.8577 22.9408 84.4379 21.9314 83.6907 21.1872C82.9435 20.443 81.9301 20.0249 80.8734 20.0249H62.9548V16.0565H84.8559C85.9126 16.0565 86.926 16.4746 87.6732 17.2188C88.4204 17.963 88.8402 18.9724 88.8402 20.0249L88.8375 95.3826Z" fill="url(#paint2_linear)"/>
<path d="M49.018 37.8745H33.0898V41.8402H49.018V37.8745Z" fill="url(#paint3_linear)"/>
<path d="M47.0268 61.6716H33.0898V65.6373H47.0268V61.6716Z" fill="url(#paint4_linear)"/>
<path d="M62.4567 51.0524C62.9801 51.0533 63.4985 50.9513 63.9822 50.7523C64.4659 50.5532 64.9054 50.2611 65.2756 49.8925L74.1298 41.0736L71.3145 38.2695L62.4531 47.0885L56.8958 41.5516L54.0806 44.3557L59.6396 49.8925C60.0093 50.2612 60.4485 50.5535 60.9319 50.7525C61.4154 50.9516 61.9336 51.0535 62.4567 51.0524Z" fill="url(#paint5_linear)"/>
<path d="M45.0356 45.8069H33.0898V49.7726H45.0356V45.8069Z" fill="url(#paint6_linear)"/>
<path d="M43.0452 69.603H33.0898V73.5687H43.0452V69.603Z" fill="url(#paint7_linear)"/>
<path d="M65.7863 76.4044C65.167 76.4049 64.568 76.1848 64.0975 75.7839L62.971 74.8279C62.8202 74.6998 62.6325 74.6225 62.4349 74.6069L60.9598 74.4896C60.3422 74.4426 59.7618 74.1769 59.3236 73.7407C58.8855 73.3045 58.6186 72.7265 58.5711 72.1113L58.4533 70.6403C58.4377 70.4437 58.36 70.2572 58.2315 70.1072L57.2707 68.9844C56.8673 68.5166 56.6455 67.9203 56.6455 67.3036C56.6455 66.687 56.8673 66.0907 57.2707 65.6229L58.2306 64.5009C58.3595 64.3509 58.4372 64.1639 58.4524 63.967L58.5702 62.4978C58.6174 61.8824 58.8843 61.3042 59.3225 60.8678C59.7606 60.4314 60.3411 60.1656 60.9589 60.1185L62.4349 60.0013C62.6318 59.9854 62.8186 59.9085 62.9692 59.7812L64.0975 58.8234C64.5674 58.4213 65.1663 58.2002 65.7858 58.2002C66.4053 58.2002 67.0043 58.4213 67.4742 58.8234L68.6007 59.7794C68.7515 59.9075 68.9391 59.9848 69.1367 60.0004L70.6118 60.1176C71.2295 60.1647 71.8099 60.4304 72.248 60.8666C72.6862 61.3028 72.9531 61.8808 73.0006 62.496L73.1183 63.9661C73.1338 64.163 73.2115 64.3499 73.3402 64.5L74.301 65.6229C74.704 66.0909 74.9256 66.6871 74.9256 67.3036C74.9256 67.9202 74.704 68.5164 74.301 68.9844L73.3402 70.1018C73.2113 70.2519 73.1336 70.4389 73.1183 70.6358L73.0006 72.105C72.9534 72.7202 72.6866 73.2983 72.2487 73.7347C71.8107 74.171 71.2304 74.4369 70.6128 74.4842L69.1358 74.6015C68.939 74.6173 68.7522 74.6943 68.6016 74.8215L67.4733 75.7839C67.0031 76.1842 66.4049 76.4043 65.7863 76.4044ZM65.7863 59.8552C65.5627 59.8555 65.3465 59.9355 65.1769 60.0807L64.0477 61.0376C63.6326 61.391 63.116 61.6047 62.5717 61.6482L61.0948 61.7654C60.8712 61.7827 60.6613 61.879 60.5029 62.0369C60.3444 62.1949 60.248 62.4041 60.2309 62.6268L60.1132 64.096C60.0684 64.6406 59.8512 65.1569 59.4929 65.5706L58.5321 66.6935C58.386 66.8626 58.3056 67.0783 58.3056 67.3014C58.3056 67.5245 58.386 67.7402 58.5321 67.9093L59.4929 69.0331C59.8482 69.4476 60.0627 69.9634 60.1059 70.5068L60.2236 71.9778C60.2411 72.2004 60.3379 72.4094 60.4964 72.5671C60.655 72.7249 60.865 72.8211 61.0884 72.8382L62.5635 72.9555C63.1099 72.9978 63.6287 73.2119 64.045 73.567L65.1751 74.5212C65.3447 74.6669 65.5613 74.7471 65.7854 74.7471C66.0094 74.7471 66.226 74.6669 66.3957 74.5212L67.524 73.5634C67.9398 73.2111 68.4567 72.9987 69.0009 72.9564L70.4778 72.8391C70.7013 72.8217 70.9111 72.7254 71.0695 72.5674C71.2279 72.4095 71.3245 72.2004 71.3417 71.9778L71.4594 70.5086C71.504 69.9637 71.7212 69.447 72.0797 69.0331L73.0405 67.9102C73.1866 67.7411 73.267 67.5254 73.267 67.3023C73.267 67.0792 73.1866 66.8635 73.0405 66.6944L72.0797 65.5706C71.7244 65.1561 71.5098 64.6402 71.4667 64.0969L71.3489 62.6268C71.3317 62.4043 71.2351 62.1953 71.0767 62.0375C70.9183 61.8797 70.7084 61.7835 70.4851 61.7663L69.0091 61.6491C68.4627 61.6068 67.9439 61.3926 67.5276 61.0376L66.4011 60.0816C66.2302 59.9349 66.0119 59.8546 65.7863 59.8552Z" fill="url(#paint8_linear)"/>
<path d="M59.9703 79.1291V77.6454C59.9699 77.3164 59.8384 77.001 59.6049 76.7684C59.3713 76.5357 59.0547 76.4048 58.7243 76.4044H57.2348L60.52 73.1322L59.9106 73.0844L59.7847 71.5232L55.3476 75.9426C55.2311 76.0584 55.1391 76.1963 55.0769 76.3481C55.0147 76.4999 54.9836 76.6625 54.9854 76.8265C54.9892 77.154 55.1222 77.4669 55.3557 77.6976C55.5892 77.9283 55.9044 78.0582 56.2332 78.0594H58.3096V80.1275C58.311 80.4552 58.4419 80.7692 58.6738 81.0016C58.9058 81.234 59.2203 81.3661 59.5493 81.3694H59.5592C59.7223 81.3699 59.8838 81.3383 60.0346 81.2764C60.1853 81.2145 60.3223 81.1235 60.4376 81.0086L65.8798 75.589L64.6121 74.5121L59.9703 79.1291Z" fill="url(#paint9_linear)"/>
<path d="M76.2216 75.9399L71.7846 71.5205L71.6587 73.0817L71.0502 73.1295L74.3345 76.4026H72.8485C72.5182 76.403 72.2016 76.5339 71.968 76.7666C71.7344 76.9992 71.603 77.3146 71.6025 77.6436V79.1263L66.9635 74.5094L65.6958 75.5863L71.138 81.0059C71.2532 81.1209 71.3902 81.2119 71.5409 81.2739C71.6917 81.3358 71.8533 81.3673 72.0164 81.3667H72.0263C72.3552 81.3634 72.6696 81.2312 72.9015 80.9988C73.1333 80.7664 73.2639 80.4524 73.2651 80.1248V78.0594H75.3396C75.6687 78.058 75.9839 77.9277 76.2172 77.6966C76.4506 77.4656 76.5832 77.1523 76.5866 76.8247C76.5881 76.6604 76.5566 76.4975 76.494 76.3455C76.4313 76.1935 76.3387 76.0556 76.2216 75.9399Z" fill="url(#paint10_linear)"/>
<path d="M65.7862 62.3354C64.8003 62.3354 63.8365 62.6266 63.0167 63.1722C62.197 63.7178 61.558 64.4932 61.1807 65.4005C60.8034 66.3077 60.7047 67.306 60.8971 68.2692C61.0894 69.2323 61.5642 70.117 62.2613 70.8113C62.9585 71.5057 63.8467 71.9786 64.8137 72.1702C65.7807 72.3618 66.783 72.2634 67.6938 71.8876C68.6047 71.5118 69.3833 70.8755 69.931 70.059C70.4788 69.2425 70.7711 68.2825 70.7711 67.3005C70.7697 65.9841 70.244 64.7221 69.3095 63.7913C68.3749 62.8604 67.1078 62.3369 65.7862 62.3354Z" fill="url(#paint11_linear)"/>
</g>
<defs>
<linearGradient id="paint0_linear" x1="36.0764" y1="10.1118" x2="36.0764" y2="12.0951" gradientUnits="userSpaceOnUse">
<stop stop-color="#FF9800"/>
<stop offset="1" stop-color="#FAD200"/>
</linearGradient>
<linearGradient id="paint1_linear" x1="69.9235" y1="10.1118" x2="69.9235" y2="12.0951" gradientUnits="userSpaceOnUse">
<stop stop-color="#FF9800"/>
<stop offset="1" stop-color="#FAD200"/>
</linearGradient>
<linearGradient id="paint2_linear" x1="52.9958" y1="0.192383" x2="52.9958" y2="103.315" gradientUnits="userSpaceOnUse">
<stop stop-color="#FF9800"/>
<stop offset="1" stop-color="#FAD200"/>
</linearGradient>
<linearGradient id="paint3_linear" x1="41.0539" y1="37.8745" x2="41.0539" y2="41.8402" gradientUnits="userSpaceOnUse">
<stop stop-color="#FF9800"/>
<stop offset="1" stop-color="#FAD200"/>
</linearGradient>
<linearGradient id="paint4_linear" x1="40.0583" y1="61.6716" x2="40.0583" y2="65.6373" gradientUnits="userSpaceOnUse">
<stop stop-color="#FF9800"/>
<stop offset="1" stop-color="#FAD200"/>
</linearGradient>
<linearGradient id="paint5_linear" x1="64.1052" y1="38.2695" x2="64.1052" y2="51.0524" gradientUnits="userSpaceOnUse">
<stop stop-color="#FF9800"/>
<stop offset="1" stop-color="#FAD200"/>
</linearGradient>
<linearGradient id="paint6_linear" x1="39.0627" y1="45.8069" x2="39.0627" y2="49.7726" gradientUnits="userSpaceOnUse">
<stop stop-color="#FF9800"/>
<stop offset="1" stop-color="#FAD200"/>
</linearGradient>
<linearGradient id="paint7_linear" x1="38.0675" y1="69.603" x2="38.0675" y2="73.5687" gradientUnits="userSpaceOnUse">
<stop stop-color="#FF9800"/>
<stop offset="1" stop-color="#FAD200"/>
</linearGradient>
<linearGradient id="paint8_linear" x1="65.7856" y1="58.2002" x2="65.7856" y2="76.4044" gradientUnits="userSpaceOnUse">
<stop stop-color="#FF9800"/>
<stop offset="1" stop-color="#FAD200"/>
</linearGradient>
<linearGradient id="paint9_linear" x1="60.4326" y1="71.5232" x2="60.4326" y2="81.3694" gradientUnits="userSpaceOnUse">
<stop stop-color="#FF9800"/>
<stop offset="1" stop-color="#FAD200"/>
</linearGradient>
<linearGradient id="paint10_linear" x1="71.1412" y1="71.5205" x2="71.1412" y2="81.3667" gradientUnits="userSpaceOnUse">
<stop stop-color="#FF9800"/>
<stop offset="1" stop-color="#FAD200"/>
</linearGradient>
<linearGradient id="paint11_linear" x1="65.7862" y1="62.3354" x2="65.7862" y2="72.2656" gradientUnits="userSpaceOnUse">
<stop stop-color="#FF9800"/>
<stop offset="1" stop-color="#FAD200"/>
</linearGradient>
<clipPath id="clip0">
<rect width="106" height="103.809" fill="white" transform="translate(0 0.834717)"/>
</clipPath>
</defs>
</svg>
