<?xml version="1.0" encoding="utf-8"?>
<!-- Generator: Adobe Illustrator 21.1.0, SVG Export Plug-In . SVG Version: 6.00 Build 0)  -->
<svg version="1.1" id="Layer_1" xmlns="http://www.w3.org/2000/svg" xmlns:xlink="http://www.w3.org/1999/xlink" x="0px" y="0px"
	 viewBox="0 0 96 94" style="enable-background:new 0 0 96 94;" xml:space="preserve">
<style type="text/css">
	.st0{fill:url(#SVGID_1_);}
	.st1{fill:url(#SVGID_2_);}
	.st2{fill:url(#SVGID_3_);}
	.st3{fill:url(#SVGID_4_);}
	.st4{fill:url(#SVGID_5_);}
	.st5{fill:url(#SVGID_6_);}
	.st6{fill:url(#SVGID_7_);}
	.st7{fill:url(#SVGID_8_);}
	.st8{fill:url(#SVGID_9_);}
	.st9{fill:url(#SVGID_10_);}
	.st10{fill:url(#SVGID_11_);}
	.st11{fill:url(#SVGID_12_);}
	.st12{fill:url(#SVGID_13_);}
	.st13{fill:url(#SVGID_14_);}
	.st14{fill:url(#SVGID_15_);}
</style>
<linearGradient id="SVGID_1_" gradientUnits="userSpaceOnUse" x1="48.0001" y1="78.5193" x2="48.0001" y2="19.7531" gradientTransform="matrix(1 0 0 -1 0 96.147)">
	<stop  offset="0" style="stop-color:#FF9800"/>
	<stop  offset="1" style="stop-color:#FF2E00;stop-opacity:0.64"/>
</linearGradient>
<path class="st0" d="M71.7,76.4H24.3c-1.6,0-3.1-0.6-4.2-1.7c-1.1-1.1-1.7-2.6-1.7-4.2v-47c0-1.6,0.6-3.1,1.7-4.2
	c1.1-1.1,2.6-1.7,4.2-1.7h47.4c1.6,0,3.1,0.6,4.2,1.7c1.1,1.1,1.7,2.6,1.7,4.2v47c0,1.6-0.6,3.1-1.7,4.2
	C74.8,75.8,73.3,76.4,71.7,76.4L71.7,76.4z M24.3,21.5c-0.5,0-1,0.2-1.4,0.6c-0.4,0.4-0.6,0.9-0.6,1.4v47c0,0.5,0.2,1,0.6,1.4
	c0.4,0.4,0.9,0.6,1.4,0.6h47.4c0.5,0,1-0.2,1.4-0.6c0.4-0.4,0.6-0.9,0.6-1.4v-47c0-0.5-0.2-1-0.6-1.4c-0.4-0.4-0.9-0.6-1.4-0.6H24.3
	z"/>
<linearGradient id="SVGID_2_" gradientUnits="userSpaceOnUse" x1="24.3094" y1="96.147" x2="24.3094" y2="82.4335" gradientTransform="matrix(1 0 0 -1 0 96.147)">
	<stop  offset="0" style="stop-color:#FF9800"/>
	<stop  offset="1" style="stop-color:#FF2E00;stop-opacity:0.64"/>
</linearGradient>
<path class="st1" d="M26.3,13.7h-3.9c-1,0-2.1-0.4-2.8-1.1c-0.7-0.7-1.2-1.7-1.2-2.8V3.9c0-1,0.4-2,1.2-2.8C20.3,0.4,21.3,0,22.3,0
	h3.9c1,0,2.1,0.4,2.8,1.1c0.7,0.7,1.2,1.7,1.2,2.8v5.9c0,1-0.4,2-1.2,2.8S27.3,13.7,26.3,13.7L26.3,13.7z M22.3,3.9v5.9h3.9V3.9
	H22.3z"/>
<linearGradient id="SVGID_3_" gradientUnits="userSpaceOnUse" x1="48.0002" y1="96.147" x2="48.0002" y2="82.4335" gradientTransform="matrix(1 0 0 -1 0 96.147)">
	<stop  offset="0" style="stop-color:#FF9800"/>
	<stop  offset="1" style="stop-color:#FF2E00;stop-opacity:0.64"/>
</linearGradient>
<path class="st2" d="M50,13.7H46c-1,0-2.1-0.4-2.8-1.1c-0.7-0.7-1.2-1.7-1.2-2.8V3.9c0-1,0.4-2,1.2-2.8C44,0.4,45,0,46,0H50
	c1,0,2.1,0.4,2.8,1.1c0.7,0.7,1.2,1.7,1.2,2.8v5.9c0,1-0.4,2-1.2,2.8C52,13.3,51,13.7,50,13.7L50,13.7z M46,3.9v5.9H50V3.9H46z"/>
<linearGradient id="SVGID_4_" gradientUnits="userSpaceOnUse" x1="71.6903" y1="96.147" x2="71.6903" y2="82.4335" gradientTransform="matrix(1 0 0 -1 0 96.147)">
	<stop  offset="0" style="stop-color:#FF9800"/>
	<stop  offset="1" style="stop-color:#FF2E00;stop-opacity:0.64"/>
</linearGradient>
<path class="st3" d="M73.7,13.7h-3.9c-1,0-2.1-0.4-2.8-1.1c-0.7-0.7-1.2-1.7-1.2-2.8V3.9c0-1,0.4-2,1.2-2.8C67.7,0.4,68.7,0,69.7,0
	h3.9c1,0,2.1,0.4,2.8,1.1c0.7,0.7,1.2,1.7,1.2,2.8v5.9c0,1-0.4,2-1.2,2.8C75.7,13.3,74.7,13.7,73.7,13.7z M69.7,3.9v5.9h3.9V3.9
	H69.7z"/>
<linearGradient id="SVGID_5_" gradientUnits="userSpaceOnUse" x1="24.3094" y1="15.8386" x2="24.3094" y2="2.1245" gradientTransform="matrix(1 0 0 -1 0 96.147)">
	<stop  offset="0" style="stop-color:#FF9800"/>
	<stop  offset="1" style="stop-color:#FF2E00;stop-opacity:0.64"/>
</linearGradient>
<path class="st4" d="M26.3,94h-3.9c-1,0-2.1-0.4-2.8-1.1c-0.7-0.7-1.2-1.7-1.2-2.8v-5.9c0-1,0.4-2,1.2-2.8s1.7-1.1,2.8-1.1h3.9
	c1,0,2.1,0.4,2.8,1.1c0.7,0.7,1.2,1.7,1.2,2.8v5.9c0,1-0.4,2-1.2,2.8C28.3,93.6,27.3,94,26.3,94L26.3,94z M22.3,84.2v5.9h3.9v-5.9
	H22.3z"/>
<linearGradient id="SVGID_6_" gradientUnits="userSpaceOnUse" x1="47.9998" y1="15.8386" x2="47.9998" y2="2.1245" gradientTransform="matrix(1 0 0 -1 0 96.147)">
	<stop  offset="0" style="stop-color:#FF9800"/>
	<stop  offset="1" style="stop-color:#FF2E00;stop-opacity:0.64"/>
</linearGradient>
<path class="st5" d="M50,94H46c-1,0-2.1-0.4-2.8-1.1c-0.7-0.7-1.2-1.7-1.2-2.8v-5.9c0-1,0.4-2,1.2-2.8c0.7-0.7,1.7-1.1,2.8-1.1H50
	c1,0,2.1,0.4,2.8,1.1s1.2,1.7,1.2,2.8v5.9c0,1-0.4,2-1.2,2.8C52,93.6,51,94,50,94L50,94z M46,84.2v5.9H50v-5.9H46z"/>
<linearGradient id="SVGID_7_" gradientUnits="userSpaceOnUse" x1="71.6903" y1="15.8386" x2="71.6903" y2="2.1245" gradientTransform="matrix(1 0 0 -1 0 96.147)">
	<stop  offset="0" style="stop-color:#FF9800"/>
	<stop  offset="1" style="stop-color:#FF2E00;stop-opacity:0.64"/>
</linearGradient>
<path class="st6" d="M73.7,94h-3.9c-1,0-2.1-0.4-2.8-1.1c-0.7-0.7-1.2-1.7-1.2-2.8v-5.9c0-1,0.4-2,1.2-2.8c0.7-0.7,1.7-1.1,2.8-1.1
	h3.9c1,0,2.1,0.4,2.8,1.1c0.7,0.7,1.2,1.7,1.2,2.8v5.9c0,1-0.4,2-1.2,2.8C75.7,93.6,74.7,94,73.7,94L73.7,94z M69.7,84.2v5.9h3.9
	v-5.9H69.7z"/>
<linearGradient id="SVGID_8_" gradientUnits="userSpaceOnUse" x1="7.5273" y1="31.5049" x2="7.5273" y2="19.753" gradientTransform="matrix(1 0 0 -1 0 96.147)">
	<stop  offset="0" style="stop-color:#FF9800"/>
	<stop  offset="1" style="stop-color:#FF2E00;stop-opacity:0.64"/>
</linearGradient>
<path class="st7" d="M10.5,76.4H4.6c-1,0-2.1-0.4-2.8-1.1c-0.7-0.7-1.2-1.7-1.2-2.8v-3.9c0-1,0.4-2,1.2-2.8c0.7-0.7,1.7-1.1,2.8-1.1
	h5.9c1,0,2.1,0.4,2.8,1.1c0.7,0.7,1.2,1.7,1.2,2.8v3.9c0,1-0.4,2-1.2,2.8C12.5,76,11.5,76.4,10.5,76.4L10.5,76.4z M4.6,68.6v3.9h5.9
	v-3.9H4.6z"/>
<linearGradient id="SVGID_9_" gradientUnits="userSpaceOnUse" x1="7.5303" y1="55.0117" x2="7.5303" y2="43.2583" gradientTransform="matrix(1 0 0 -1 0 96.147)">
	<stop  offset="0" style="stop-color:#FF9800"/>
	<stop  offset="1" style="stop-color:#FF2E00;stop-opacity:0.64"/>
</linearGradient>
<path class="st8" d="M10.5,52.9H4.6c-1,0-2-0.4-2.8-1.2C1,51,0.6,50,0.6,49v-3.9c0-1,0.4-2,1.2-2.8c0.7-0.7,1.7-1.1,2.8-1.1h5.9
	c1,0,2.1,0.4,2.8,1.1c0.7,0.7,1.2,1.7,1.2,2.8V49c0,1-0.4,2-1.2,2.8C12.5,52.5,11.5,52.9,10.5,52.9L10.5,52.9z M4.6,45.1V49h5.9
	v-3.9L4.6,45.1z"/>
<linearGradient id="SVGID_10_" gradientUnits="userSpaceOnUse" x1="7.5273" y1="78.5156" x2="7.5273" y2="66.7637" gradientTransform="matrix(1 0 0 -1 0 96.147)">
	<stop  offset="0" style="stop-color:#FF9800"/>
	<stop  offset="1" style="stop-color:#FF2E00;stop-opacity:0.64"/>
</linearGradient>
<path class="st9" d="M10.5,29.4H4.6c-1,0-2.1-0.4-2.8-1.1c-0.7-0.7-1.2-1.7-1.2-2.8v-3.9c0-1,0.4-2,1.2-2.8c0.7-0.7,1.7-1.1,2.8-1.1
	h5.9c1,0,2.1,0.4,2.8,1.1c0.7,0.7,1.2,1.7,1.2,2.8v3.9c0,1-0.4,2-1.2,2.8C12.5,29,11.5,29.4,10.5,29.4L10.5,29.4z M4.6,21.5v3.9h5.9
	v-3.9L4.6,21.5z"/>
<linearGradient id="SVGID_11_" gradientUnits="userSpaceOnUse" x1="88.4687" y1="31.5049" x2="88.4687" y2="19.753" gradientTransform="matrix(1 0 0 -1 0 96.147)">
	<stop  offset="0" style="stop-color:#FF9800"/>
	<stop  offset="1" style="stop-color:#FF2E00;stop-opacity:0.64"/>
</linearGradient>
<path class="st10" d="M91.4,76.4h-5.9c-1,0-2.1-0.4-2.8-1.1c-0.7-0.7-1.2-1.7-1.2-2.8v-3.9c0-1,0.4-2,1.2-2.8
	c0.7-0.7,1.7-1.1,2.8-1.1h5.9c1,0,2.1,0.4,2.8,1.1c0.7,0.7,1.2,1.7,1.2,2.8v3.9c0,1-0.4,2-1.2,2.8C93.5,76,92.5,76.4,91.4,76.4
	L91.4,76.4z M85.5,68.6v3.9h5.9v-3.9H85.5z"/>
<linearGradient id="SVGID_12_" gradientUnits="userSpaceOnUse" x1="88.4687" y1="55.0103" x2="88.4687" y2="43.2584" gradientTransform="matrix(1 0 0 -1 0 96.147)">
	<stop  offset="0" style="stop-color:#FF9800"/>
	<stop  offset="1" style="stop-color:#FF2E00;stop-opacity:0.64"/>
</linearGradient>
<path class="st11" d="M91.4,52.9h-5.9c-1,0-2.1-0.4-2.8-1.1C82,51,81.6,50,81.6,49v-3.9c0-1,0.4-2,1.2-2.8c0.7-0.7,1.7-1.1,2.8-1.1
	h5.9c1,0,2.1,0.4,2.8,1.1c0.7,0.7,1.2,1.7,1.2,2.8V49c0,1-0.4,2-1.2,2.8C93.5,52.5,92.5,52.9,91.4,52.9L91.4,52.9z M85.5,45.1V49
	h5.9v-3.9L85.5,45.1z"/>
<linearGradient id="SVGID_13_" gradientUnits="userSpaceOnUse" x1="88.4687" y1="78.5156" x2="88.4687" y2="66.7637" gradientTransform="matrix(1 0 0 -1 0 96.147)">
	<stop  offset="0" style="stop-color:#FF9800"/>
	<stop  offset="1" style="stop-color:#FF2E00;stop-opacity:0.64"/>
</linearGradient>
<path class="st12" d="M91.4,29.4h-5.9c-1,0-2.1-0.4-2.8-1.1c-0.7-0.7-1.2-1.7-1.2-2.8v-3.9c0-1,0.4-2,1.2-2.8
	c0.7-0.7,1.7-1.1,2.8-1.1h5.9c1,0,2.1,0.4,2.8,1.1c0.7,0.7,1.2,1.7,1.2,2.8v3.9c0,1-0.4,2-1.2,2.8C93.5,29,92.5,29.4,91.4,29.4
	L91.4,29.4z M85.5,21.5v3.9h5.9v-3.9L85.5,21.5z"/>
<linearGradient id="SVGID_14_" gradientUnits="userSpaceOnUse" x1="48.0002" y1="70.6809" x2="48.0002" y2="27.5883" gradientTransform="matrix(1 0 0 -1 0 96.147)">
	<stop  offset="0" style="stop-color:#FF9800"/>
	<stop  offset="1" style="stop-color:#FF2E00;stop-opacity:0.64"/>
</linearGradient>
<path class="st13" d="M65.8,68.6H30.2c-1,0-2.1-0.4-2.8-1.1c-0.7-0.7-1.2-1.7-1.2-2.8V29.4c0-1,0.4-2,1.2-2.8
	c0.7-0.7,1.7-1.1,2.8-1.1h35.5c1,0,2.1,0.4,2.8,1.1c0.7,0.7,1.2,1.7,1.2,2.8v35.3c0,1-0.4,2-1.2,2.8C67.8,68.1,66.8,68.6,65.8,68.6
	L65.8,68.6z M30.2,29.4v35.3h35.5V29.4L30.2,29.4z"/>
<linearGradient id="SVGID_15_" gradientUnits="userSpaceOnUse" x1="48" y1="58.9282" x2="48" y2="39.3388" gradientTransform="matrix(1 0 0 -1 0 96.147)">
	<stop  offset="0" style="stop-color:#FF9800"/>
	<stop  offset="1" style="stop-color:#FF2E00;stop-opacity:0.64"/>
</linearGradient>
<path class="st14" d="M57.9,54.8c0,0.5-0.2,1-0.6,1.4c-0.4,0.4-0.9,0.6-1.4,0.6H40.1c-0.5,0-1-0.2-1.4-0.6c-0.4-0.4-0.6-0.9-0.6-1.4
	V39.2c0-0.5,0.2-1,0.6-1.4c0.4-0.4,0.9-0.6,1.4-0.6h15.8c0.5,0,1,0.2,1.4,0.6c0.4,0.4,0.6,0.9,0.6,1.4V54.8z"/>
</svg>
