<svg width="96" height="127" viewBox="0 0 96 127" fill="none" xmlns="http://www.w3.org/2000/svg">
<path d="M71.6904 92.3204H24.3097C22.7384 92.3194 21.2316 91.6996 20.1205 90.5972C19.0094 89.4948 18.3848 87.9998 18.3838 86.4407V39.4338C18.3848 37.8748 19.0094 36.3798 20.1205 35.2774C21.2316 34.1749 22.7384 33.5552 24.3097 33.5542H71.6904C73.2618 33.5552 74.7685 34.1749 75.8796 35.2774C76.9907 36.3798 77.6153 37.8748 77.6163 39.4338V86.4444C77.6144 88.0028 76.9893 89.4968 75.8783 90.5985C74.7673 91.7001 73.2611 92.3194 71.6904 92.3204ZM24.3097 37.4752C23.7865 37.4761 23.2849 37.6828 22.9149 38.0499C22.5449 38.417 22.3366 38.9147 22.3356 39.4338V86.4444C22.3366 86.9636 22.5449 87.4612 22.9149 87.8283C23.2849 88.1954 23.7865 88.4021 24.3097 88.4031H71.6904C72.2137 88.4021 72.7152 88.1954 73.0852 87.8283C73.4552 87.4612 73.6635 86.9636 73.6645 86.4444V39.4338C73.6635 38.9147 73.4552 38.417 73.0852 38.0499C72.7152 37.6828 72.2137 37.4761 71.6904 37.4752H24.3097Z" fill="url(#paint0_linear)"/>
<path d="M26.2835 29.64H22.3354C21.2886 29.6388 20.2851 29.2257 19.5449 28.4914C18.8047 27.757 18.3884 26.7613 18.3872 25.7227V19.8438C18.3884 18.8052 18.8047 17.8095 19.5449 17.0752C20.2851 16.3408 21.2886 15.9277 22.3354 15.9265H26.2835C27.3302 15.9277 28.3338 16.3408 29.074 17.0752C29.8141 17.8095 30.2305 18.8052 30.2316 19.8438V25.7234C30.2303 26.7619 29.8138 27.7574 29.0737 28.4916C28.3336 29.2258 27.3301 29.6388 26.2835 29.64ZM22.3354 19.8438V25.7234H26.2835V19.8438H22.3354Z" fill="url(#paint1_linear)"/>
<path d="M49.9742 29.64H46.0261C44.9788 29.6398 43.9744 29.2273 43.2335 28.4929C42.4925 27.7586 42.0756 26.7625 42.0742 25.7234V19.8438C42.0754 18.8052 42.4917 17.8095 43.2319 17.0752C43.9721 16.3408 44.9756 15.9277 46.0224 15.9265H49.9705C51.0185 15.9257 52.024 16.338 52.7658 17.0726C53.5075 17.8072 53.9249 18.804 53.9261 19.8438V25.7234C53.9247 26.7625 53.5078 27.7586 52.7668 28.4929C52.0259 29.2273 51.0215 29.6398 49.9742 29.64ZM46.0261 19.8438V25.7234H49.9742V19.8438H46.0261Z" fill="url(#paint2_linear)"/>
<path d="M73.6643 29.64H69.7162C68.6695 29.6388 67.6659 29.2257 66.9257 28.4914C66.1856 27.757 65.7692 26.7613 65.7681 25.7227V19.8438C65.7692 18.8052 66.1856 17.8095 66.9257 17.0752C67.6659 16.3408 68.6695 15.9277 69.7162 15.9265H73.6643C74.7111 15.9277 75.7146 16.3408 76.4548 17.0752C77.195 17.8095 77.6113 18.8052 77.6125 19.8438V25.7234C77.6111 26.7619 77.1947 27.7574 76.4545 28.4916C75.7144 29.2258 74.711 29.6388 73.6643 29.64ZM69.7162 19.8438V25.7234H73.6643V19.8438H69.7162Z" fill="url(#paint3_linear)"/>
<path d="M26.2835 109.949H22.3354C21.2886 109.948 20.2851 109.535 19.5449 108.8C18.8047 108.066 18.3884 107.07 18.3872 106.032V100.152C18.3884 99.1136 18.8047 98.1179 19.5449 97.3835C20.2851 96.6491 21.2886 96.236 22.3354 96.2349H26.2835C27.3302 96.236 28.3338 96.6491 29.074 97.3835C29.8141 98.1179 30.2305 99.1136 30.2316 100.152V106.032C30.2305 107.07 29.8141 108.066 29.074 108.8C28.3338 109.535 27.3302 109.948 26.2835 109.949ZM22.3354 100.155V106.035H26.2835V100.155H22.3354Z" fill="url(#paint4_linear)"/>
<path d="M49.9739 109.949H46.0258C44.979 109.948 43.9755 109.535 43.2353 108.8C42.4952 108.066 42.0788 107.07 42.0776 106.032V100.152C42.0788 99.1136 42.4952 98.1179 43.2353 97.3835C43.9755 96.6491 44.979 96.236 46.0258 96.2349H49.9739C51.0207 96.236 52.0242 96.6491 52.7644 97.3835C53.5046 98.1179 53.9209 99.1136 53.9221 100.152V106.032C53.9209 107.07 53.5046 108.066 52.7644 108.8C52.0242 109.535 51.0207 109.948 49.9739 109.949ZM46.0258 100.155V106.035H49.9739V100.155H46.0258Z" fill="url(#paint5_linear)"/>
<path d="M73.6643 109.949H69.7162C68.6695 109.948 67.6659 109.535 66.9257 108.8C66.1856 108.066 65.7692 107.07 65.7681 106.032V100.152C65.7692 99.1136 66.1856 98.1179 66.9257 97.3835C67.6659 96.6491 68.6695 96.236 69.7162 96.2349H73.6643C74.7111 96.236 75.7146 96.6491 76.4548 97.3835C77.195 98.1179 77.6113 99.1136 77.6125 100.152V106.032C77.6113 107.07 77.195 108.066 76.4548 108.8C75.7146 109.535 74.7111 109.948 73.6643 109.949ZM69.7162 100.155V106.035H73.6643V100.155H69.7162Z" fill="url(#paint6_linear)"/>
<path d="M10.4903 92.3205H4.56436C3.51761 92.3193 2.51406 91.9062 1.7739 91.1719C1.03373 90.4375 0.617387 89.4418 0.616211 88.4032V84.4859C0.617387 83.4473 1.03373 82.4516 1.7739 81.7172C2.51406 80.9829 3.51761 80.5698 4.56436 80.5686H10.4903C11.537 80.5698 12.5406 80.9829 13.2807 81.7172C14.0209 82.4516 14.4373 83.4473 14.4384 84.4859V88.4032C14.4373 89.4418 14.0209 90.4375 13.2807 91.1719C12.5406 91.9062 11.537 92.3193 10.4903 92.3205ZM4.56436 84.4852V88.4025H10.4903V84.4852H4.56436Z" fill="url(#paint7_linear)"/>
<path d="M10.4903 68.8152H4.56433C3.51783 68.8132 2.51482 68.3996 1.77525 67.665C1.03569 66.9304 0.619923 65.9347 0.619141 64.8964V60.9791C0.620317 59.9405 1.03666 58.9448 1.77683 58.2104C2.51699 57.476 3.52054 57.0629 4.56729 57.0618H10.4932C11.54 57.0629 12.5435 57.476 13.2837 58.2104C14.0239 58.9448 14.4402 59.9405 14.4414 60.9791V64.8964C14.4406 65.9357 14.024 66.9323 13.2832 67.6671C12.5423 68.4019 11.5378 68.8148 10.4903 68.8152ZM4.56433 60.9798V64.8964H10.4903V60.9791L4.56433 60.9798Z" fill="url(#paint8_linear)"/>
<path d="M10.4903 45.3098H4.56436C3.51761 45.3086 2.51406 44.8955 1.7739 44.1612C1.03373 43.4268 0.617387 42.4311 0.616211 41.3925V37.4752C0.617387 36.4366 1.03373 35.4409 1.7739 34.7065C2.51406 33.9721 3.51761 33.559 4.56436 33.5579H10.4903C11.537 33.559 12.5406 33.9721 13.2807 34.7065C14.0209 35.4409 14.4373 36.4366 14.4384 37.4752V41.3925C14.4373 42.4311 14.0209 43.4268 13.2807 44.1612C12.5406 44.8955 11.537 45.3086 10.4903 45.3098ZM4.56436 37.4744V41.3917H10.4903V37.4752L4.56436 37.4744Z" fill="url(#paint9_linear)"/>
<path d="M91.4317 92.3205H85.5058C84.459 92.3193 83.4555 91.9062 82.7153 91.1719C81.9751 90.4375 81.5588 89.4418 81.5576 88.4032V84.4859C81.5588 83.4473 81.9751 82.4516 82.7153 81.7172C83.4555 80.9829 84.459 80.5698 85.5058 80.5686H91.4317C92.4784 80.5698 93.482 80.9829 94.2221 81.7172C94.9623 82.4516 95.3787 83.4473 95.3798 84.4859V88.4032C95.3787 89.4418 94.9623 90.4375 94.2221 91.1719C93.482 91.9062 92.4784 92.3193 91.4317 92.3205ZM85.5058 84.4852V88.4025H91.4317V84.4852H85.5058Z" fill="url(#paint10_linear)"/>
<path d="M91.4317 68.8151H85.5058C84.459 68.814 83.4555 68.4009 82.7153 67.6665C81.9751 66.9321 81.5588 65.9364 81.5576 64.8978V60.9805C81.5588 59.942 81.9751 58.9463 82.7153 58.2119C83.4555 57.4775 84.459 57.0644 85.5058 57.0632H91.4317C92.4784 57.0644 93.482 57.4775 94.2221 58.2119C94.9623 58.9463 95.3787 59.942 95.3798 60.9805V64.8964C95.379 65.9352 94.9629 66.9313 94.2227 67.666C93.4825 68.4007 92.4787 68.814 91.4317 68.8151ZM85.5058 60.9798V64.8964H91.4317V60.9791L85.5058 60.9798Z" fill="url(#paint11_linear)"/>
<path d="M91.4317 45.3098H85.5058C84.459 45.3086 83.4555 44.8955 82.7153 44.1612C81.9751 43.4268 81.5588 42.4311 81.5576 41.3925V37.4752C81.5588 36.4366 81.9751 35.4409 82.7153 34.7065C83.4555 33.9721 84.459 33.559 85.5058 33.5579H91.4317C92.4784 33.559 93.482 33.9721 94.2221 34.7065C94.9623 35.4409 95.3787 36.4366 95.3798 37.4752V41.3925C95.3787 42.4311 94.9623 43.4268 94.2221 44.1612C93.482 44.8955 92.4784 45.3086 91.4317 45.3098ZM85.5058 37.4744V41.3917H91.4317V37.4752L85.5058 37.4744Z" fill="url(#paint12_linear)"/>
<path d="M65.7676 84.4852H30.2328C29.1861 84.484 28.1825 84.0709 27.4424 83.3365C26.7022 82.6021 26.2858 81.6064 26.2847 80.5678V45.3099C26.2858 44.2713 26.7022 43.2756 27.4424 42.5412C28.1825 41.8068 29.1861 41.3937 30.2328 41.3926H65.7676C66.8144 41.3937 67.8179 41.8068 68.5581 42.5412C69.2983 43.2756 69.7146 44.2713 69.7158 45.3099V80.5678C69.7146 81.6064 69.2983 82.6021 68.5581 83.3365C67.8179 84.0709 66.8144 84.484 65.7676 84.4852ZM30.2321 45.3121V80.5701H65.7676V45.3099L30.2321 45.3121Z" fill="url(#paint13_linear)"/>
<path d="M57.8711 70.776C57.8709 71.2954 57.6629 71.7935 57.2927 72.1608C56.9225 72.5281 56.4205 72.7345 55.897 72.7347H40.103C39.5795 72.7345 39.0775 72.5281 38.7073 72.1608C38.3371 71.7935 38.1291 71.2954 38.1289 70.776V55.1039C38.1291 54.5845 38.3371 54.0864 38.7073 53.7192C39.0775 53.3519 39.5795 53.1455 40.103 53.1453H55.897C56.4205 53.1455 56.9225 53.3519 57.2927 53.7192C57.6629 54.0864 57.8709 54.5845 57.8711 55.1039V70.776Z" fill="url(#paint14_linear)"/>
<defs>
<linearGradient id="paint0_linear" x1="48.0001" y1="33.5542" x2="48.0001" y2="92.3204" gradientUnits="userSpaceOnUse">
<stop stop-color="#FF9800"/>
<stop offset="1" stop-color="#FAD200"/>
</linearGradient>
<linearGradient id="paint1_linear" x1="24.3094" y1="15.9265" x2="24.3094" y2="29.64" gradientUnits="userSpaceOnUse">
<stop stop-color="#FF9800"/>
<stop offset="1" stop-color="#FAD200"/>
</linearGradient>
<linearGradient id="paint2_linear" x1="48.0001" y1="15.9265" x2="48.0001" y2="29.64" gradientUnits="userSpaceOnUse">
<stop stop-color="#FF9800"/>
<stop offset="1" stop-color="#FAD200"/>
</linearGradient>
<linearGradient id="paint3_linear" x1="71.6903" y1="15.9265" x2="71.6903" y2="29.64" gradientUnits="userSpaceOnUse">
<stop stop-color="#FF9800"/>
<stop offset="1" stop-color="#FAD200"/>
</linearGradient>
<linearGradient id="paint4_linear" x1="24.3094" y1="96.2349" x2="24.3094" y2="109.949" gradientUnits="userSpaceOnUse">
<stop stop-color="#FF9800"/>
<stop offset="1" stop-color="#FAD200"/>
</linearGradient>
<linearGradient id="paint5_linear" x1="47.9999" y1="96.2349" x2="47.9999" y2="109.949" gradientUnits="userSpaceOnUse">
<stop stop-color="#FF9800"/>
<stop offset="1" stop-color="#FAD200"/>
</linearGradient>
<linearGradient id="paint6_linear" x1="71.6903" y1="96.2349" x2="71.6903" y2="109.949" gradientUnits="userSpaceOnUse">
<stop stop-color="#FF9800"/>
<stop offset="1" stop-color="#FAD200"/>
</linearGradient>
<linearGradient id="paint7_linear" x1="7.52732" y1="80.5686" x2="7.52732" y2="92.3205" gradientUnits="userSpaceOnUse">
<stop stop-color="#FF9800"/>
<stop offset="1" stop-color="#FAD200"/>
</linearGradient>
<linearGradient id="paint8_linear" x1="7.53026" y1="57.0618" x2="7.53026" y2="68.8152" gradientUnits="userSpaceOnUse">
<stop stop-color="#FF9800"/>
<stop offset="1" stop-color="#FAD200"/>
</linearGradient>
<linearGradient id="paint9_linear" x1="7.52732" y1="33.5579" x2="7.52732" y2="45.3098" gradientUnits="userSpaceOnUse">
<stop stop-color="#FF9800"/>
<stop offset="1" stop-color="#FAD200"/>
</linearGradient>
<linearGradient id="paint10_linear" x1="88.4687" y1="80.5686" x2="88.4687" y2="92.3205" gradientUnits="userSpaceOnUse">
<stop stop-color="#FF9800"/>
<stop offset="1" stop-color="#FAD200"/>
</linearGradient>
<linearGradient id="paint11_linear" x1="88.4687" y1="57.0632" x2="88.4687" y2="68.8151" gradientUnits="userSpaceOnUse">
<stop stop-color="#FF9800"/>
<stop offset="1" stop-color="#FAD200"/>
</linearGradient>
<linearGradient id="paint12_linear" x1="88.4687" y1="33.5579" x2="88.4687" y2="45.3098" gradientUnits="userSpaceOnUse">
<stop stop-color="#FF9800"/>
<stop offset="1" stop-color="#FAD200"/>
</linearGradient>
<linearGradient id="paint13_linear" x1="48.0002" y1="41.3926" x2="48.0002" y2="84.4852" gradientUnits="userSpaceOnUse">
<stop stop-color="#FF9800"/>
<stop offset="1" stop-color="#FAD200"/>
</linearGradient>
<linearGradient id="paint14_linear" x1="48" y1="53.1453" x2="48" y2="72.7347" gradientUnits="userSpaceOnUse">
<stop stop-color="#FF9800"/>
<stop offset="1" stop-color="#FAD200"/>
</linearGradient>
</defs>
</svg>
