<?xml version="1.0" encoding="utf-8"?>
<!-- Generator: Adobe Illustrator 21.1.0, SVG Export Plug-In . SVG Version: 6.00 Build 0)  -->
<svg version="1.1" id="Layer_1" xmlns="http://www.w3.org/2000/svg" xmlns:xlink="http://www.w3.org/1999/xlink" x="0px" y="0px"
	 viewBox="0 0 90 101.4" style="enable-background:new 0 0 90 101.4;" xml:space="preserve">
<style type="text/css">
	.st0{fill:url(#SVGID_1_);}
	.st1{fill:url(#SVGID_2_);}
	.st2{fill:url(#SVGID_3_);}
	.st3{fill:url(#SVGID_4_);}
	.st4{fill:url(#SVGID_5_);}
	.st5{fill:url(#SVGID_6_);}
</style>
<linearGradient id="SVGID_1_" gradientUnits="userSpaceOnUse" x1="14.0562" y1="85.2314" x2="14.0562" y2="73.6441" gradientTransform="matrix(1 0 0 -1 0 105.5)">
	<stop  offset="0" style="stop-color:#FF9800"/>
	<stop  offset="1" style="stop-color:#FF2E00;stop-opacity:0.64"/>
</linearGradient>
<path class="st0" d="M14.1,31.9c3.2,0,5.8-2.6,5.8-5.8c0-3.2-2.6-5.8-5.8-5.8c-3.2,0-5.8,2.6-5.8,5.8C8.2,29.3,10.8,31.9,14.1,31.9z
	"/>
<linearGradient id="SVGID_2_" gradientUnits="userSpaceOnUse" x1="60.6864" y1="46.6084" x2="60.6864" y2="19.5726" gradientTransform="matrix(1 0 0 -1 0 105.5)">
	<stop  offset="0" style="stop-color:#FF9800"/>
	<stop  offset="1" style="stop-color:#FF2E00;stop-opacity:0.64"/>
</linearGradient>
<path class="st1" d="M47.1,85.9c15,0,27.2-12.1,27.2-27h-3.9c0,12.8-10.5,23.2-23.3,23.2L47.1,85.9z"/>
<linearGradient id="SVGID_3_" gradientUnits="userSpaceOnUse" x1="14.0563" y1="92.9558" x2="14.0563" y2="65.9179" gradientTransform="matrix(1 0 0 -1 0 105.5)">
	<stop  offset="0" style="stop-color:#FF9800"/>
	<stop  offset="1" style="stop-color:#FF2E00;stop-opacity:0.64"/>
</linearGradient>
<path class="st2" d="M14.1,39.6c7.5,0,13.6-6.1,13.6-13.5c0-7.5-6.1-13.5-13.6-13.5c-7.5,0-13.6,6.1-13.6,13.5S6.6,39.6,14.1,39.6z
	 M14.1,16.4c5.4,0,9.7,4.3,9.7,9.7c0,5.3-4.4,9.7-9.7,9.7c-5.4,0-9.7-4.3-9.7-9.7S8.7,16.4,14.1,16.4L14.1,16.4z"/>
<linearGradient id="SVGID_4_" gradientUnits="userSpaceOnUse" x1="47.0873" y1="65.918" x2="47.0873" y2="38.9566" gradientTransform="matrix(1 0 0 -1 0 105.5)">
	<stop  offset="0" style="stop-color:#FF9800"/>
	<stop  offset="1" style="stop-color:#FF2E00;stop-opacity:0.64"/>
</linearGradient>
<path class="st3" d="M45.1,39.6v11.9c-3.3,0.9-5.8,3.9-5.8,7.5c0,2,0.8,4,2.3,5.4c1.5,1.4,3.4,2.2,5.5,2.2s4-0.8,5.5-2.2
	c1.5-1.4,2.3-3.4,2.3-5.4c0-3.6-2.5-6.6-5.8-7.5V39.6H45.1z M51,58.9c0,0.8-0.2,1.5-0.7,2.1c-0.4,0.6-1,1.1-1.7,1.4
	c-0.7,0.3-1.5,0.4-2.2,0.2c-0.8-0.1-1.4-0.5-2-1.1c-0.5-0.5-0.9-1.2-1.1-2c-0.1-0.7-0.1-1.5,0.2-2.2c0.3-0.7,0.8-1.3,1.4-1.7
	c0.6-0.4,1.4-0.7,2.2-0.7c1,0,2,0.4,2.7,1.1C50.6,56.9,51,57.9,51,58.9L51,58.9z"/>
<linearGradient id="SVGID_5_" gradientUnits="userSpaceOnUse" x1="47.0874" y1="81.3691" x2="47.0874" y2="11.848" gradientTransform="matrix(1 0 0 -1 0 105.5)">
	<stop  offset="0" style="stop-color:#FF9800"/>
	<stop  offset="1" style="stop-color:#FF2E00;stop-opacity:0.64"/>
</linearGradient>
<path class="st4" d="M16,58.9c0-3.7,0.7-7.4,2-10.9l-3.6-1.4c-1.5,3.9-2.2,8.1-2.2,12.3c0,19.2,15.7,34.8,35,34.8
	c19.3,0,35-15.6,35-34.8c0-19.2-15.7-34.8-35-34.8c-4,0-8,0.7-11.8,2l1.3,3.6c3.4-1.2,6.9-1.8,10.5-1.8c17.1,0,31.1,13.9,31.1,30.9
	c0,17-13.9,30.9-31.1,30.9S16,75.9,16,58.9z"/>
<linearGradient id="SVGID_6_" gradientUnits="userSpaceOnUse" x1="47.0877" y1="104.5515" x2="47.0877" y2="4.123" gradientTransform="matrix(1 0 0 -1 0 105.5)">
	<stop  offset="0" style="stop-color:#FF9800"/>
	<stop  offset="1" style="stop-color:#FF2E00;stop-opacity:0.64"/>
</linearGradient>
<path class="st5" d="M81.1,33.2l5.6-5.5c0.7-0.7,1.1-1.7,1.1-2.7c0-1-0.4-2-1.1-2.7l-2.7-2.7c-0.7-0.7-1.7-1.1-2.7-1.1
	c-1,0-2,0.4-2.7,1.1l-5.6,5.5C66,19.8,57.7,16.8,49,16.5v-3.9h3.9c1,0,2-0.4,2.7-1.1c0.7-0.7,1.1-1.7,1.1-2.7V4.8c0-1-0.4-2-1.1-2.7
	c-0.7-0.7-1.7-1.1-2.7-1.1H41.3c-1,0-2,0.4-2.7,1.1c-0.7,0.7-1.1,1.7-1.1,2.7v3.9c0,1,0.4,2,1.1,2.7c0.7,0.7,1.7,1.1,2.7,1.1h3.9
	v3.9c-4.2,0.2-8.3,0.9-12.3,2.3l1.3,3.6c4.2-1.5,8.5-2.2,13-2.2c21.4,0,38.9,17.3,38.9,38.6c0,21.3-17.4,38.6-38.9,38.6
	c-21.4,0-38.9-17.3-38.9-38.6c0-4.4,0.7-8.7,2.2-12.9l-3.7-1.3c-1.6,4.5-2.4,9.3-2.4,14.2c0,23.4,19.2,42.5,42.7,42.5
	c23.6,0,42.7-19.1,42.7-42.5C89.8,49.6,86.8,40.6,81.1,33.2L81.1,33.2z M41.3,4.8h11.7l0,3.9H41.3V4.8z M75.9,27.5l5.3-5.3l2.7,2.7
	l-5.3,5.3C77.8,29.3,76.8,28.4,75.9,27.5L75.9,27.5z"/>
</svg>
