<svg width="94" height="106" viewBox="0 0 94 106" fill="none" xmlns="http://www.w3.org/2000/svg">
<path d="M93.7613 57.9594C93.7613 54.8555 91.626 51.8562 87.9377 49.6491C90.0383 46.4591 90.6112 43.2527 89.4929 40.6169C88.2767 37.7495 85.1288 35.784 80.8561 35.1288C81.55 31.394 80.8256 28.2163 78.7635 26.1998C76.8078 24.2937 73.7215 23.5604 70.1021 24.0966C69.1742 20.8601 67.3801 18.5841 64.9341 17.5941C61.6333 16.2565 57.3222 17.4759 53.4029 20.8486L56.0677 23.8823C58.7245 21.5941 61.6007 20.5848 63.3971 21.3152C64.9232 21.9339 66.1009 23.9769 66.5449 26.7876L66.8962 29.0012L69.0801 28.4148C72.1106 27.6055 74.6617 27.8414 75.9104 29.0636C77.2316 30.3539 77.4105 33.1273 76.3754 36.2994L75.5475 38.8363L78.2413 38.9244C82.0186 39.0513 84.9659 40.3244 85.7517 42.1767C86.4659 43.8642 85.5424 46.49 83.3427 49.0326L81.5789 51.0713L84.0496 52.1702C87.48 53.6906 89.6993 55.9652 89.6993 57.9594C89.6993 59.7873 87.8161 61.8726 84.7739 63.4074L82.3561 64.626L84.2198 66.5787C86.7897 69.2668 87.9443 72.1915 87.1649 74.0295C86.3247 76.0145 82.9102 77.4101 78.8287 77.294L75.5874 77.2438L76.9578 80.1528C78.4535 83.3248 79.0243 87.4588 77.22 89.223C75.8358 90.5749 72.7603 90.7075 69.3807 89.5627L66.8557 88.709L66.6992 91.3427C66.4899 94.8122 65.1912 97.524 63.3905 98.2508C61.5797 98.9899 58.6824 97.9576 56.0119 95.6394L54.0207 93.9118L52.8517 96.2645C51.2966 99.3999 49.0273 101.426 47.0709 101.426C45.1145 101.426 42.8452 99.3985 41.2879 96.2645L40.1189 93.9118L38.1277 95.6394C35.4542 97.9576 32.5562 98.9799 30.7491 98.2508C28.2748 97.2473 27.2926 93.1505 27.4266 89.7635L27.5548 86.5871L24.6017 87.8387C20.8686 89.4158 17.1666 89.4581 15.6057 87.9334C14.1643 86.5212 14.0846 83.385 15.4029 79.9442L16.359 77.451L13.6718 77.2302C10.2595 76.9506 7.69177 75.7248 6.97325 74.0281C6.19388 72.1901 7.35062 69.2654 9.91833 66.5773L11.782 64.6246L9.36423 63.406C6.3315 61.8755 4.44609 59.7881 4.44609 57.958C4.44609 55.963 6.66469 53.6892 10.0958 52.1623L12.5701 51.0612L10.8063 49.0226C8.60586 46.4792 7.68235 43.8541 8.39726 42.1667C9.06726 40.5861 11.3264 39.4126 14.4417 39.0269L16.7088 38.7474L16.1605 36.5517C15.4746 33.7954 15.7564 31.4736 16.9196 30.3345C18.3016 28.9847 21.3814 28.8521 24.7568 29.9948L27.2817 30.8507L27.4454 28.2156C27.6548 24.7446 28.9535 22.0342 30.7541 21.3074C32.5649 20.5683 35.4622 21.5984 38.1306 23.9188L40.8106 20.8973C36.8746 17.4802 32.5432 16.2379 29.2215 17.5891C26.4343 18.7181 24.4554 21.6149 23.6985 25.546C19.7061 24.7281 16.2083 25.4027 14.0752 27.4815C12.197 29.3138 11.4249 32.0865 11.8284 35.4227C8.27919 36.2829 5.71293 38.1166 4.65325 40.6133C3.5349 43.2506 4.10711 46.457 6.20836 49.6455C2.52592 51.8569 0.390625 54.8562 0.390625 57.9594C0.390625 60.8139 2.17245 63.5601 5.36163 65.7178C2.81999 69.1385 2.02034 72.7105 3.23431 75.5793C4.35048 78.2152 7.0732 80.0789 10.8665 80.8789C9.85242 84.995 10.513 88.595 12.7562 90.7907C15.4623 93.4344 19.6959 93.4867 23.4762 92.4724C23.8984 96.3756 25.5448 100.482 29.2186 101.97C32.0036 103.097 35.4926 102.412 38.868 100.15C41.1068 103.5 44.0664 105.441 47.0781 105.441C50.0898 105.441 53.0494 103.5 55.2847 100.148C58.6622 102.409 62.1512 103.095 64.9341 101.968C67.7169 100.841 69.7001 97.9397 70.4548 94.0107C74.4495 94.8401 77.9486 94.1613 80.0781 92.0753C82.8958 89.3233 82.8161 84.9176 81.6796 81.1513C85.5627 80.6689 89.4516 79.0359 90.9169 75.5786C92.133 72.7113 91.3326 69.1385 88.7895 65.717C91.9787 63.5601 93.7613 60.8139 93.7613 57.9594Z" fill="url(#paint0_linear)"/>
<path d="M38.8857 34.9692C38.8857 37.0994 39.7372 39.1424 41.2529 40.6486C42.7686 42.1549 44.8243 43.0011 46.9678 43.0011C49.1113 43.0011 51.167 42.1549 52.6827 40.6486C54.1984 39.1424 55.0499 37.0994 55.0499 34.9692C55.0499 31.2361 52.4637 28.12 48.9884 27.2229V12.8824C48.9884 11.8276 49.1975 10.7832 49.6037 9.8087C50.0098 8.83422 50.6051 7.94879 51.3556 7.20296C52.1061 6.45714 52.9971 5.86551 53.9777 5.46187C54.9582 5.05823 56.0092 4.85048 57.0705 4.85048C58.1319 4.85048 59.1829 5.05823 60.1634 5.46187C61.144 5.86551 62.0349 6.45714 62.7854 7.20296C63.5359 7.94879 64.1313 8.83422 64.5374 9.8087C64.9436 10.7832 65.1526 11.8276 65.1526 12.8824V14.8886H69.1902V12.8824C69.1902 6.23803 63.7532 0.834717 57.0673 0.834717C50.3814 0.834717 44.9479 6.23803 44.9479 12.8824V27.2229C41.472 28.1207 38.8857 31.2369 38.8857 34.9692ZM46.9675 30.9567C47.766 30.9567 48.5467 31.192 49.2107 31.6329C49.8746 32.0738 50.3921 32.7005 50.6977 33.4337C51.0033 34.1669 51.0833 34.9737 50.9275 35.7521C50.7717 36.5304 50.3872 37.2454 49.8225 37.8065C49.2578 38.3677 48.5384 38.7499 47.7552 38.9047C46.972 39.0595 46.1601 38.98 45.4223 38.6763C44.6846 38.3727 44.054 37.8583 43.6103 37.1985C43.1667 36.5386 42.9299 35.7628 42.9299 34.9692C42.931 33.905 43.3568 32.8847 44.1138 32.1319C44.8708 31.3792 45.8973 30.9555 46.9682 30.9538L46.9675 30.9567Z" fill="#FF9800"/>
<path d="M56.9046 60.8408H38.8857V62.4626H56.9046V60.8408Z" fill="#FF9800"/>
<path d="M56.9046 64.0852H38.8857V65.707H56.9046V64.0852Z" fill="#FF9800"/>
<path d="M38.8857 69.5586C38.8857 72.4003 41.2324 75.4365 47.8205 75.4365C50.8438 75.4365 53.4223 74.3049 55.2658 73.1632V69.5558C54.356 70.2982 51.4715 72.4947 47.8205 72.4947C47.1726 72.4947 41.8645 72.4947 41.8645 69.5558C41.8645 65.147 55.2666 65.147 55.2666 58.7278C55.2666 53.3905 50.7992 51.9207 46.3318 51.9207C43.9088 51.9207 41.1554 52.7248 40.3758 52.9728V56.0076L41.1158 55.8194L41.2022 55.7973L41.2871 55.7711C42.6109 55.3505 44.7273 54.8596 46.3318 54.8596C52.2878 54.8596 52.2878 57.5698 52.2878 58.7278C52.2878 60.2516 49.086 61.5232 46.5147 62.5441C42.9385 63.9649 38.8857 65.5747 38.8857 69.5586Z" fill="#FF9800"/>
<defs>
<linearGradient id="paint0_linear" x1="47.0759" y1="17.0535" x2="47.0759" y2="105.441" gradientUnits="userSpaceOnUse">
<stop stop-color="#FF9800"/>
<stop offset="1" stop-color="#FAD200"/>
</linearGradient>
</defs>
</svg>
