<svg width="90" height="120" viewBox="0 0 90 120" fill="none" xmlns="http://www.w3.org/2000/svg">
<path d="M14.0562 40.1059C17.2756 40.1059 19.8854 37.512 19.8854 34.3122C19.8854 31.1125 17.2756 28.5186 14.0562 28.5186C10.8369 28.5186 8.22705 31.1125 8.22705 34.3122C8.22705 37.512 10.8369 40.1059 14.0562 40.1059Z" fill="url(#paint0_linear)"/>
<path d="M47.0875 94.1774C62.0875 94.1774 74.2888 82.0496 74.2888 67.1416H70.4C70.4 79.9203 59.9409 90.3156 47.084 90.3156L47.0875 94.1774Z" fill="url(#paint1_linear)"/>
<path d="M14.0563 47.8321C21.5563 47.8321 27.657 41.7664 27.657 34.3142C27.657 26.8619 21.5542 20.7942 14.0563 20.7942C6.55834 20.7942 0.455566 26.8598 0.455566 34.3121C0.455566 41.7644 6.55834 47.8321 14.0563 47.8321ZM14.0563 24.658C19.4132 24.658 23.7708 28.9898 23.7708 34.3135C23.7708 39.6371 19.4132 43.9669 14.0563 43.9669C8.69932 43.9669 4.34168 39.6364 4.34168 34.3121C4.34168 28.9878 8.70001 24.656 14.0563 24.656V24.658Z" fill="url(#paint2_linear)"/>
<path d="M45.1446 47.832V59.6913C41.8029 60.5548 39.3154 63.5517 39.3154 67.1415C39.3348 69.1776 40.1621 71.1237 41.6175 72.5566C43.073 73.9896 45.0387 74.7934 47.0873 74.7934C49.1359 74.7934 51.1017 73.9896 52.5571 72.5566C54.0125 71.1237 54.8398 69.1776 54.8592 67.1415C54.8592 63.5524 52.3724 60.5541 49.03 59.6913V47.832H45.1446ZM50.9724 67.1415C50.9724 67.906 50.7443 68.6533 50.317 69.2889C49.8897 69.9246 49.2823 70.42 48.5717 70.7125C47.8611 71.0051 47.0792 71.0816 46.3248 70.9325C45.5704 70.7834 44.8775 70.4152 44.3336 69.8747C43.7898 69.3341 43.4194 68.6454 43.2693 67.8956C43.1193 67.1458 43.1963 66.3687 43.4906 65.6624C43.785 64.9561 44.2834 64.3525 44.9229 63.9277C45.5625 63.503 46.3143 63.2763 47.0835 63.2763C48.1149 63.2763 49.104 63.6836 49.8333 64.4084C50.5627 65.1333 50.9724 66.1164 50.9724 67.1415Z" fill="url(#paint3_linear)"/>
<path d="M15.9992 67.1416C15.9931 63.4168 16.6673 59.7218 17.9888 56.2362L14.3541 54.8723C12.8665 58.7934 12.1074 62.9504 12.1138 67.141C12.1138 86.3076 27.8034 101.902 47.0874 101.902C66.3715 101.902 82.061 86.3076 82.061 67.141C82.061 47.9743 66.3715 32.3809 47.0874 32.3809C43.0497 32.375 39.0417 33.0677 35.243 34.4281L36.5624 38.0607C39.9382 36.8531 43.4996 36.2381 47.0874 36.2434C64.2284 36.2434 78.1749 50.105 78.1749 67.1416C78.1749 84.1783 64.2284 98.0399 47.0874 98.0399C29.9464 98.0399 15.9992 84.1783 15.9992 67.1416Z" fill="url(#paint4_linear)"/>
<path d="M81.1363 41.4917L86.6918 35.97C87.4195 35.2453 87.8282 34.2633 87.8282 33.2395C87.8282 32.2156 87.4195 31.2336 86.6918 30.509L83.9446 27.7785C83.2155 27.0552 82.2275 26.649 81.1974 26.649C80.1673 26.649 79.1793 27.0552 78.4502 27.7785L72.8946 33.3002C66.0059 28.0852 57.6788 25.086 49.0279 24.7042V20.7941H52.9168C53.9482 20.7941 54.9374 20.3869 55.6667 19.662C56.396 18.9372 56.8057 17.954 56.8057 16.9289V13.0637C56.8057 12.0386 56.396 11.0555 55.6667 10.3306C54.9374 9.60571 53.9482 9.19849 52.9168 9.19849H41.2585C40.2271 9.19849 39.2379 9.60571 38.5086 10.3306C37.7793 11.0555 37.3696 12.0386 37.3696 13.0637V16.9289C37.3696 17.954 37.7793 18.9372 38.5086 19.662C39.2379 20.3869 40.2271 20.7941 41.2585 20.7941H45.1474V24.7374C40.9328 24.9244 36.8002 25.6857 32.8425 27.0758L34.1335 30.7146C38.2942 29.2547 42.6752 28.5114 47.0877 28.517C68.5147 28.517 85.9474 45.8414 85.9474 67.1402C85.9474 88.4389 68.5168 105.763 47.0877 105.763C25.6585 105.763 8.22794 88.4389 8.22794 67.1402C8.22235 62.7546 8.97013 58.4003 10.439 54.2649L6.77655 52.9804C5.15955 57.5285 4.33613 62.3178 4.34183 67.1416C4.34183 90.5682 23.5168 109.627 47.0877 109.627C70.6585 109.627 89.8335 90.5689 89.8335 67.1416C89.8416 57.8752 86.7858 48.863 81.1363 41.4917ZM41.2585 13.0692H52.9168L52.921 16.9344H41.2585V13.0692ZM75.8918 35.7815L81.1981 30.5076L83.9453 33.2381L78.639 38.5141C77.7668 37.5623 76.8481 36.6505 75.8918 35.7815Z" fill="url(#paint5_linear)"/>
<defs>
<linearGradient id="paint0_linear" x1="14.0562" y1="28.5186" x2="14.0562" y2="40.1059" gradientUnits="userSpaceOnUse">
<stop stop-color="#FF9800"/>
<stop offset="1" stop-color="#FAD200"/>
</linearGradient>
<linearGradient id="paint1_linear" x1="60.6864" y1="67.1416" x2="60.6864" y2="94.1774" gradientUnits="userSpaceOnUse">
<stop stop-color="#FF9800"/>
<stop offset="1" stop-color="#FAD200"/>
</linearGradient>
<linearGradient id="paint2_linear" x1="14.0563" y1="20.7942" x2="14.0563" y2="47.8321" gradientUnits="userSpaceOnUse">
<stop stop-color="#FF9800"/>
<stop offset="1" stop-color="#FAD200"/>
</linearGradient>
<linearGradient id="paint3_linear" x1="47.0873" y1="47.832" x2="47.0873" y2="74.7934" gradientUnits="userSpaceOnUse">
<stop stop-color="#FF9800"/>
<stop offset="1" stop-color="#FAD200"/>
</linearGradient>
<linearGradient id="paint4_linear" x1="47.0874" y1="32.3809" x2="47.0874" y2="101.902" gradientUnits="userSpaceOnUse">
<stop stop-color="#FF9800"/>
<stop offset="1" stop-color="#FAD200"/>
</linearGradient>
<linearGradient id="paint5_linear" x1="47.0877" y1="9.19849" x2="47.0877" y2="109.627" gradientUnits="userSpaceOnUse">
<stop stop-color="#FF9800"/>
<stop offset="1" stop-color="#FAD200"/>
</linearGradient>
</defs>
</svg>
