<svg width="84" height="112" viewBox="0 0 84 112" fill="none" xmlns="http://www.w3.org/2000/svg">
<path d="M42.2439 40.7562C45.5157 40.7562 48.168 38.1148 48.168 34.8565C48.168 31.5982 45.5157 28.9568 42.2439 28.9568C38.9721 28.9568 36.3198 31.5982 36.3198 34.8565C36.3198 38.1148 38.9721 40.7562 42.2439 40.7562Z" fill="url(#paint0_linear)"/>
<path d="M54.0927 82.0559C56.8193 82.0559 59.0296 79.8546 59.0296 77.1393C59.0296 74.4239 56.8193 72.2227 54.0927 72.2227C51.3661 72.2227 49.1558 74.4239 49.1558 77.1393C49.1558 79.8546 51.3661 82.0559 54.0927 82.0559Z" fill="url(#paint1_linear)"/>
<path d="M30.3954 82.0559C33.122 82.0559 35.3324 79.8546 35.3324 77.1393C35.3324 74.4239 33.122 72.2227 30.3954 72.2227C27.6688 72.2227 25.4585 74.4239 25.4585 77.1393C25.4585 79.8546 27.6688 82.0559 30.3954 82.0559Z" fill="url(#paint2_linear)"/>
<path d="M34.3447 85.989C34.3447 88.0753 35.1769 90.0762 36.6583 91.5515C38.1396 93.0267 40.1488 93.8555 42.2437 93.8555C44.3386 93.8555 46.3478 93.0267 47.8291 91.5515C49.3105 90.0762 50.1427 88.0753 50.1427 85.989H34.3447Z" fill="url(#paint3_linear)"/>
<path d="M83.7134 74.1888C83.7134 69.8324 81.3256 66.0293 77.7893 63.9857V58.0944C80.0838 57.2804 81.7391 55.1167 81.7391 52.5561C81.7391 49.9955 80.0844 47.8325 77.7893 47.0179V44.6897C77.7893 30.5046 69.108 17.5956 56.0673 12.0967V11.2576C56.0654 9.69349 55.4406 8.19397 54.3301 7.08797C53.2195 5.98197 51.7138 5.35979 50.1432 5.35791H34.3446C32.774 5.35979 31.2683 5.98197 30.1577 7.08797C29.0472 8.19397 28.4224 9.69349 28.4205 11.2576V12.0967C15.3791 17.5956 6.69849 30.5046 6.69849 44.6897V47.0211C4.40404 47.8351 2.74867 49.9987 2.74867 52.5594C2.74867 55.12 4.40339 57.283 6.69849 58.0976V63.9895C3.16154 66.0331 0.774414 69.8363 0.774414 74.1926C0.774414 80.5726 5.88506 85.7719 12.2466 85.9727C16.398 98.524 28.2643 107.621 42.2436 107.621C56.2228 107.621 68.0911 98.524 72.2438 85.9688C78.6027 85.7687 83.7134 80.5687 83.7134 74.1888ZM65.9412 28.9567C65.9413 28.4351 66.1495 27.935 66.5198 27.5662C66.8901 27.1974 67.3923 26.9901 67.9161 26.9899H68.3231C70.7539 30.5487 72.43 34.5639 73.249 38.79H67.9154C67.3917 38.7896 66.8895 38.5822 66.5193 38.2132C66.1491 37.8443 65.9412 37.3441 65.9412 36.8225V28.9567ZM32.3703 11.257C32.3705 10.7354 32.5786 10.2352 32.949 9.86643C33.3193 9.49762 33.8215 9.29035 34.3452 9.29018H50.1425C50.6663 9.29035 51.1685 9.49762 51.5388 9.86643C51.9092 10.2352 52.1173 10.7354 52.1175 11.257V13.2237C52.1156 14.7879 51.4908 16.2874 50.3803 17.3934C49.2697 18.4994 47.764 19.1216 46.1934 19.1234H38.2944C36.7238 19.1216 35.2181 18.4994 34.1075 17.3934C32.997 16.2874 32.3722 14.7879 32.3703 13.2237V11.257ZM28.9183 16.1542C30.1802 20.1388 33.8805 23.057 38.2944 23.057H46.1934C50.6073 23.057 54.3075 20.1388 55.5695 16.1542C59.3676 17.9266 62.7716 20.4372 65.5814 23.5385C64.5167 23.9932 63.6091 24.7488 62.9711 25.7118C62.333 26.6748 61.9924 27.8029 61.9913 28.9567V36.8225C61.9932 38.3866 62.618 39.8862 63.7285 40.9922C64.8391 42.0982 66.3448 42.7203 67.9154 42.7222H73.7624C73.8038 43.3755 73.8395 44.03 73.8395 44.689V46.6558H10.6451V44.6897C10.6451 44.0306 10.6807 43.3761 10.7222 42.7229H16.5691C18.1397 42.721 19.6454 42.0988 20.756 40.9928C21.8666 39.8868 22.4913 38.3873 22.4932 36.8232V28.9567C22.4923 27.8024 22.1517 26.6737 21.5137 25.7101C20.8757 24.7465 19.9681 23.9902 18.9031 23.5347C21.7147 20.4349 25.1197 17.9256 28.9183 16.1542ZM16.5724 26.9899C17.0961 26.9901 17.5983 27.1974 17.9687 27.5662C18.339 27.935 18.5471 28.4351 18.5473 28.9567V36.8225C18.5471 37.3441 18.339 37.8443 17.9687 38.2131C17.5983 38.5819 17.0961 38.7891 16.5724 38.7893H11.2381C12.0571 34.5633 13.7333 30.548 16.164 26.9893L16.5724 26.9899ZM8.67339 50.5893H75.815C76.3388 50.5893 76.8411 50.7966 77.2115 51.1654C77.5819 51.5342 77.7899 52.0345 77.7899 52.5561C77.7899 53.0777 77.5819 53.578 77.2115 53.9468C76.8411 54.3157 76.3388 54.5229 75.815 54.5229H8.67339C8.14962 54.5229 7.64729 54.3157 7.27692 53.9468C6.90656 53.578 6.69849 53.0777 6.69849 52.5561C6.69849 52.0345 6.90656 51.5342 7.27692 51.1654C7.64729 50.7966 8.14962 50.5893 8.67339 50.5893ZM4.72358 74.1888C4.72358 70.5328 7.25136 67.4809 10.6477 66.6018V76.1549C10.6542 78.0866 10.84 80.0136 11.2025 81.9113C7.52358 81.2432 4.72358 78.0436 4.72358 74.1888ZM52.1175 101.842V99.7569H48.1683V103.037C46.8669 103.317 45.5468 103.502 44.2185 103.59V97.7901H40.2693V103.59C38.941 103.502 37.6208 103.317 36.3195 103.037V99.7569H32.3703V101.844C21.9948 97.8734 14.5975 87.873 14.5975 76.1575V58.4558H69.8903V76.1555C69.8903 87.871 62.493 97.8708 52.1175 101.842ZM73.2847 81.912C73.6472 80.0143 73.8329 78.0873 73.8395 76.1555V66.6024C77.2358 67.4816 79.7636 70.5334 79.7636 74.1894C79.7642 78.0436 76.9642 81.2432 73.2847 81.912Z" fill="url(#paint4_linear)"/>
<path d="M42.2437 42.7229C43.806 42.7229 45.3332 42.2616 46.6322 41.3972C47.9311 40.5328 48.9436 39.3042 49.5414 37.8668C50.1393 36.4294 50.2957 34.8477 49.9909 33.3218C49.6861 31.7958 48.9338 30.3942 47.8291 29.294C46.7244 28.1939 45.317 27.4447 43.7847 27.1411C42.2525 26.8376 40.6643 26.9934 39.2209 27.5888C37.7775 28.1842 36.5439 29.1925 35.6759 30.4861C34.808 31.7797 34.3447 33.3006 34.3447 34.8565C34.347 36.9421 35.1799 38.9417 36.6607 40.4164C38.1416 41.8912 40.1495 42.7207 42.2437 42.7229ZM42.2437 30.9229C43.0249 30.9229 43.7886 31.1536 44.4381 31.5858C45.0877 32.0181 45.5939 32.6324 45.8929 33.3512C46.1918 34.0699 46.27 34.8608 46.1176 35.6239C45.9652 36.3869 45.589 37.0878 45.0367 37.6379C44.4843 38.188 43.7805 38.5627 43.0143 38.7144C42.2481 38.8662 41.4539 38.7883 40.7322 38.4906C40.0104 38.1929 39.3936 37.6887 38.9596 37.0418C38.5255 36.395 38.2939 35.6344 38.2939 34.8565C38.2951 33.8136 38.7116 32.8139 39.4521 32.0766C40.1926 31.3392 41.1966 30.9246 42.2437 30.9236V30.9229Z" fill="url(#paint5_linear)"/>
<path d="M60.0173 62.3894H48.1685V66.323H60.0173V62.3894Z" fill="url(#paint6_linear)"/>
<path d="M36.32 62.3894H24.4712V66.323H36.32V62.3894Z" fill="url(#paint7_linear)"/>
<defs>
<linearGradient id="paint0_linear" x1="42.2439" y1="28.9568" x2="42.2439" y2="40.7562" gradientUnits="userSpaceOnUse">
<stop stop-color="#FF9800"/>
<stop offset="1" stop-color="#FAD200"/>
</linearGradient>
<linearGradient id="paint1_linear" x1="54.0927" y1="72.2227" x2="54.0927" y2="82.0559" gradientUnits="userSpaceOnUse">
<stop stop-color="#FF9800"/>
<stop offset="1" stop-color="#FAD200"/>
</linearGradient>
<linearGradient id="paint2_linear" x1="30.3954" y1="72.2227" x2="30.3954" y2="82.0559" gradientUnits="userSpaceOnUse">
<stop stop-color="#FF9800"/>
<stop offset="1" stop-color="#FAD200"/>
</linearGradient>
<linearGradient id="paint3_linear" x1="42.2437" y1="85.989" x2="42.2437" y2="93.8555" gradientUnits="userSpaceOnUse">
<stop stop-color="#FF9800"/>
<stop offset="1" stop-color="#FAD200"/>
</linearGradient>
<linearGradient id="paint4_linear" x1="42.2439" y1="5.35791" x2="42.2439" y2="107.621" gradientUnits="userSpaceOnUse">
<stop stop-color="#FF9800"/>
<stop offset="1" stop-color="#FAD200"/>
</linearGradient>
<linearGradient id="paint5_linear" x1="42.2437" y1="26.99" x2="42.2437" y2="42.7229" gradientUnits="userSpaceOnUse">
<stop stop-color="#FF9800"/>
<stop offset="1" stop-color="#FAD200"/>
</linearGradient>
<linearGradient id="paint6_linear" x1="54.0929" y1="62.3894" x2="54.0929" y2="66.323" gradientUnits="userSpaceOnUse">
<stop stop-color="#FF9800"/>
<stop offset="1" stop-color="#FAD200"/>
</linearGradient>
<linearGradient id="paint7_linear" x1="30.3956" y1="62.3894" x2="30.3956" y2="66.323" gradientUnits="userSpaceOnUse">
<stop stop-color="#FF9800"/>
<stop offset="1" stop-color="#FAD200"/>
</linearGradient>
</defs>
</svg>
