<?xml version="1.0" encoding="utf-8"?>
<!-- Generator: Adobe Illustrator 21.1.0, SVG Export Plug-In . SVG Version: 6.00 Build 0)  -->
<svg version="1.1" id="Layer_1" xmlns="http://www.w3.org/2000/svg" xmlns:xlink="http://www.w3.org/1999/xlink" x="0px" y="0px"
	 viewBox="0 0 84 102.3" style="enable-background:new 0 0 84 102.3;" xml:space="preserve">
<style type="text/css">
	.st0{fill:url(#SVGID_1_);}
	.st1{fill:url(#SVGID_2_);}
	.st2{fill:url(#SVGID_3_);}
	.st3{fill:url(#SVGID_4_);}
	.st4{fill:url(#SVGID_5_);}
	.st5{fill:url(#SVGID_6_);}
	.st6{fill:url(#SVGID_7_);}
	.st7{fill:url(#SVGID_8_);}
</style>
<linearGradient id="SVGID_1_" gradientUnits="userSpaceOnUse" x1="42.2439" y1="79.6853" x2="42.2439" y2="67.8859" gradientTransform="matrix(1 0 0 -1 0 103.2842)">
	<stop  offset="0" style="stop-color:#FF9800"/>
	<stop  offset="1" style="stop-color:#FF2E00;stop-opacity:0.64"/>
</linearGradient>
<path class="st0" d="M42.2,35.4c3.3,0,5.9-2.6,5.9-5.9s-2.7-5.9-5.9-5.9s-5.9,2.6-5.9,5.9S39,35.4,42.2,35.4z"/>
<linearGradient id="SVGID_2_" gradientUnits="userSpaceOnUse" x1="54.0927" y1="36.4194" x2="54.0927" y2="26.5862" gradientTransform="matrix(1 0 0 -1 0 103.2842)">
	<stop  offset="0" style="stop-color:#FF9800"/>
	<stop  offset="1" style="stop-color:#FF2E00;stop-opacity:0.64"/>
</linearGradient>
<path class="st1" d="M54.1,76.7c2.7,0,4.9-2.2,4.9-4.9c0-2.7-2.2-4.9-4.9-4.9s-4.9,2.2-4.9,4.9C49.2,74.5,51.4,76.7,54.1,76.7z"/>
<linearGradient id="SVGID_3_" gradientUnits="userSpaceOnUse" x1="30.3955" y1="36.4194" x2="30.3955" y2="26.5862" gradientTransform="matrix(1 0 0 -1 0 103.2842)">
	<stop  offset="0" style="stop-color:#FF9800"/>
	<stop  offset="1" style="stop-color:#FF2E00;stop-opacity:0.64"/>
</linearGradient>
<path class="st2" d="M30.4,76.7c2.7,0,4.9-2.2,4.9-4.9c0-2.7-2.2-4.9-4.9-4.9c-2.7,0-4.9,2.2-4.9,4.9C25.5,74.5,27.7,76.7,30.4,76.7
	z"/>
<linearGradient id="SVGID_4_" gradientUnits="userSpaceOnUse" x1="42.2437" y1="22.6531" x2="42.2437" y2="14.7866" gradientTransform="matrix(1 0 0 -1 0 103.2842)">
	<stop  offset="0" style="stop-color:#FF9800"/>
	<stop  offset="1" style="stop-color:#FF2E00;stop-opacity:0.64"/>
</linearGradient>
<path class="st3" d="M34.3,80.6c0,2.1,0.8,4.1,2.3,5.6c1.5,1.5,3.5,2.3,5.6,2.3c2.1,0,4.1-0.8,5.6-2.3c1.5-1.5,2.3-3.5,2.3-5.6H34.3
	z"/>
<linearGradient id="SVGID_5_" gradientUnits="userSpaceOnUse" x1="42.2439" y1="103.2842" x2="42.2439" y2="1.0211" gradientTransform="matrix(1 0 0 -1 0 103.2842)">
	<stop  offset="0" style="stop-color:#FF9800"/>
	<stop  offset="1" style="stop-color:#FF2E00;stop-opacity:0.64"/>
</linearGradient>
<path class="st4" d="M83.7,68.8c0-4.4-2.4-8.2-5.9-10.2v-5.9c2.3-0.8,3.9-3,3.9-5.5s-1.7-4.7-3.9-5.5v-2.3
	c0-14.2-8.7-27.1-21.7-32.6V5.9c0-1.6-0.6-3.1-1.7-4.2C53.2,0.6,51.7,0,50.1,0H34.3c-1.6,0-3.1,0.6-4.2,1.7
	c-1.1,1.1-1.7,2.6-1.7,4.2v0.8c-13,5.5-21.7,18.4-21.7,32.6v2.3c-2.3,0.8-3.9,3-3.9,5.5c0,2.6,1.7,4.7,3.9,5.5v5.9
	c-3.5,2-5.9,5.8-5.9,10.2c0,6.4,5.1,11.6,11.5,11.8c4.2,12.6,16,21.6,30,21.6c14,0,25.8-9.1,30-21.7C78.6,80.4,83.7,75.2,83.7,68.8z
	 M65.9,23.6c0-0.5,0.2-1,0.6-1.4c0.4-0.4,0.9-0.6,1.4-0.6h0.4c2.4,3.6,4.1,7.6,4.9,11.8h-5.3c-0.5,0-1-0.2-1.4-0.6
	c-0.4-0.4-0.6-0.9-0.6-1.4V23.6z M32.4,5.9c0-0.5,0.2-1,0.6-1.4c0.4-0.4,0.9-0.6,1.4-0.6h15.8c0.5,0,1,0.2,1.4,0.6
	c0.4,0.4,0.6,0.9,0.6,1.4v2c0,1.6-0.6,3.1-1.7,4.2c-1.1,1.1-2.6,1.7-4.2,1.7h-7.9c-1.6,0-3.1-0.6-4.2-1.7c-1.1-1.1-1.7-2.6-1.7-4.2
	V5.9z M28.9,10.8c1.3,4,5,6.9,9.4,6.9h7.9c4.4,0,8.1-2.9,9.4-6.9c3.8,1.8,7.2,4.3,10,7.4c-1.1,0.5-2,1.2-2.6,2.2c-0.6,1-1,2.1-1,3.2
	v7.9c0,1.6,0.6,3.1,1.7,4.2c1.1,1.1,2.6,1.7,4.2,1.7h5.8c0,0.7,0.1,1.3,0.1,2v2H10.6v-2c0-0.7,0-1.3,0.1-2h5.8
	c1.6,0,3.1-0.6,4.2-1.7c1.1-1.1,1.7-2.6,1.7-4.2v-7.9c0-1.2-0.3-2.3-1-3.2c-0.6-1-1.5-1.7-2.6-2.2C21.7,15.1,25.1,12.6,28.9,10.8
	L28.9,10.8z M16.6,21.6c0.5,0,1,0.2,1.4,0.6c0.4,0.4,0.6,0.9,0.6,1.4v7.9c0,0.5-0.2,1-0.6,1.4c-0.4,0.4-0.9,0.6-1.4,0.6h-5.3
	c0.8-4.2,2.5-8.2,4.9-11.8L16.6,21.6z M8.7,45.2h67.1c0.5,0,1,0.2,1.4,0.6c0.4,0.4,0.6,0.9,0.6,1.4c0,0.5-0.2,1-0.6,1.4
	c-0.4,0.4-0.9,0.6-1.4,0.6H8.7c-0.5,0-1-0.2-1.4-0.6c-0.4-0.4-0.6-0.9-0.6-1.4c0-0.5,0.2-1,0.6-1.4C7.6,45.4,8.1,45.2,8.7,45.2
	L8.7,45.2z M4.7,68.8c0-3.7,2.5-6.7,5.9-7.6v9.6c0,1.9,0.2,3.9,0.6,5.8C7.5,75.9,4.7,72.7,4.7,68.8z M52.1,96.5v-2.1h-3.9v3.3
	c-1.3,0.3-2.6,0.5-3.9,0.6v-5.8h-3.9v5.8c-1.3-0.1-2.6-0.3-3.9-0.6v-3.3h-3.9v2.1c-10.4-4-17.8-14-17.8-25.7V53.1h55.3v17.7
	C69.9,82.5,62.5,92.5,52.1,96.5z M73.3,76.6c0.4-1.9,0.5-3.8,0.6-5.8v-9.6c3.4,0.9,5.9,3.9,5.9,7.6C79.8,72.7,77,75.9,73.3,76.6z"/>
<linearGradient id="SVGID_6_" gradientUnits="userSpaceOnUse" x1="42.2437" y1="81.6521" x2="42.2437" y2="65.9192" gradientTransform="matrix(1 0 0 -1 0 103.2842)">
	<stop  offset="0" style="stop-color:#FF9800"/>
	<stop  offset="1" style="stop-color:#FF2E00;stop-opacity:0.64"/>
</linearGradient>
<path class="st5" d="M42.2,37.4c1.6,0,3.1-0.5,4.4-1.3c1.3-0.9,2.3-2.1,2.9-3.5c0.6-1.4,0.8-3,0.4-4.5c-0.3-1.5-1.1-2.9-2.2-4
	c-1.1-1.1-2.5-1.8-4-2.2c-1.5-0.3-3.1-0.1-4.6,0.4c-1.4,0.6-2.7,1.6-3.5,2.9c-0.9,1.3-1.3,2.8-1.3,4.4c0,2.1,0.8,4.1,2.3,5.6
	C38.1,36.5,40.1,37.4,42.2,37.4L42.2,37.4z M42.2,25.6c0.8,0,1.5,0.2,2.2,0.7c0.6,0.4,1.2,1,1.5,1.8c0.3,0.7,0.4,1.5,0.2,2.3
	c-0.2,0.8-0.5,1.5-1.1,2c-0.6,0.6-1.3,0.9-2,1.1c-0.8,0.2-1.6,0.1-2.3-0.2c-0.7-0.3-1.3-0.8-1.8-1.4c-0.4-0.6-0.7-1.4-0.7-2.2
	c0-1,0.4-2,1.2-2.8C40.2,26,41.2,25.6,42.2,25.6L42.2,25.6z"/>
<linearGradient id="SVGID_7_" gradientUnits="userSpaceOnUse" x1="54.0929" y1="46.2527" x2="54.0929" y2="42.3191" gradientTransform="matrix(1 0 0 -1 0 103.2842)">
	<stop  offset="0" style="stop-color:#FF9800"/>
	<stop  offset="1" style="stop-color:#FF2E00;stop-opacity:0.64"/>
</linearGradient>
<path class="st6" d="M60,57H48.2V61H60V57z"/>
<linearGradient id="SVGID_8_" gradientUnits="userSpaceOnUse" x1="30.3956" y1="46.2527" x2="30.3956" y2="42.3191" gradientTransform="matrix(1 0 0 -1 0 103.2842)">
	<stop  offset="0" style="stop-color:#FF9800"/>
	<stop  offset="1" style="stop-color:#FF2E00;stop-opacity:0.64"/>
</linearGradient>
<path class="st7" d="M36.3,57H24.5V61h11.8V57z"/>
</svg>
